<?xml version="1.0" encoding="UTF-8"?>
<svg width="44px" height="44px" viewBox="0 0 44 44" version="1.1" xmlns="http://www.w3.org/2000/svg" xmlns:xlink="http://www.w3.org/1999/xlink">
    <title>icons_land_map</title>
    <defs>
        <polygon id="path-1" points="0 0 30 0 30 29 0 29"></polygon>
    </defs>
    <g id="icons_land_map" stroke="none" stroke-width="1" fill="none" fill-rule="evenodd">
        <g id="Group-3" transform="translate(7.000000, 8.000000)">
            <mask id="mask-2" fill="white">
                <use xlink:href="#path-1"></use>
            </mask>
            <g id="Clip-2"></g>
            <path d="M11.9536965,29 L14.9998743,29 L18.0465549,29 C14.7474925,24.750511 16.4176366,17.7594485 14.9998743,15.9335747 C13.5826148,17.7594485 15.2517533,24.750511 11.9536965,29 M6.60792841,2.47334326 C8.87886177,3.11830117 9.56713004,4.50214778 8.71194791,6.70022863 C6.44252281,6.05426612 5.75375179,4.67192642 6.60792841,2.47334326 M6.98046806,7.51245367 C10.4841507,7.34870267 12.109047,8.97214813 11.9461552,12.473707 C8.44146703,12.6369557 6.81657072,11.0130079 6.98046806,7.51245367 M2.81616852,18.4807566 C4.87644856,20.6250909 6.82461477,20.573856 8.76926171,18.3250424 C6.70898167,16.1812104 4.76131822,16.231943 2.81616852,18.4807566 M-0.000251376285,15.5307271 C1.52610543,17.2124398 3.04944572,17.2119375 4.65423192,15.5307271 C3.04944572,13.8495167 1.52610543,13.8495167 -0.000251376285,15.5307271 M6.66775596,15.5307271 C9.21319223,18.3220286 11.6887459,18.3220286 14.2336794,15.5307271 C11.6887459,12.7389233 9.21319223,12.7389233 6.66775596,15.5307271 M9.09403987,22.4147989 C12.1633443,22.5579555 13.5861341,21.1359338 13.4433524,18.0688676 C10.3740479,17.9267156 8.95025263,19.348235 9.09403987,22.4147989 M10.8592041,2.98920913 C13.5469194,4.37707417 14.059727,6.28934423 12.4262839,8.83351232 C9.73856866,7.44665189 9.22576104,5.53287491 10.8592041,2.98920913 M2.48636284,6.84991513 C5.03682663,6.60428863 6.28113924,7.72894655 6.28918328,10.288686 C3.73871949,10.5358194 2.49440688,9.41065923 2.48636284,6.84991513 M23.3918202,2.47334326 C21.1213896,3.11830117 20.4331213,4.50214778 21.2878007,6.70022863 C23.5572258,6.05426612 24.2459968,4.67192642 23.3918202,2.47334326 M23.0197833,7.51245367 C19.5155979,7.34870267 17.8907016,8.97214813 18.0540962,12.473707 C21.5582816,12.6369557 23.1836807,11.0130079 23.0197833,7.51245367 M27.1835801,18.4807566 C25.1227973,20.6250909 23.1751339,20.573856 21.2304869,18.3250424 C23.2907669,16.1812104 25.2389332,16.231943 27.1835801,18.4807566 M30,15.5307271 C28.4741459,17.2124398 26.9503029,17.2119375 25.3460195,15.5307271 C26.9503029,13.8495167 28.4741459,13.8495167 30,15.5307271 M23.3319927,15.5307271 C20.7870591,18.3220286 18.3110027,18.3220286 15.7660692,15.5307271 C18.3110027,12.7389233 20.7870591,12.7389233 23.3319927,15.5307271 M14.9998743,0 C17.0033433,1.82938996 17.0033433,3.60704264 14.9998743,5.43090726 C12.9964053,3.60704264 12.9964053,1.82938996 14.9998743,0 M14.9998743,14.4944747 C17.7866318,11.9558319 17.7866318,9.48550248 14.9998743,6.94685974 C12.2136196,9.48550248 12.2136196,11.9558319 14.9998743,14.4944747 M20.9057088,22.4147989 C17.8369071,22.5579555 16.4136145,21.1359338 16.5563963,18.0688676 C19.6262035,17.9267156 21.049496,19.348235 20.9057088,22.4147989 M19.1410472,2.98920913 C16.4523265,4.37707417 15.9400216,6.28934423 17.5734647,8.83351232 C20.26118,7.44665189 20.7739876,5.53287491 19.1410472,2.98920913 M27.5133858,6.84991513 C24.9634248,6.60428863 23.7186094,7.72894655 23.7105653,10.288686 C26.2610291,10.5358194 27.5053417,9.41065923 27.5133858,6.84991513 M27.2660315,12.6952229 C25.3475277,10.6985658 23.5340992,10.746787 21.7236872,12.8403887 C23.6416882,14.8365435 25.4551168,14.7888246 27.2660315,12.6952229 M2.73421985,12.6952229 C4.65222091,10.6985658 6.46564943,10.746787 8.27656419,12.8403887 C6.35856313,14.8365435 4.54513461,14.7888246 2.73421985,12.6952229" id="Fill-1" fill="#FF8600" mask="url(#mask-2)"></path>
        </g>
    </g>
</svg>