<?xml version="1.0" encoding="UTF-8"?>
<svg width="44px" height="44px" viewBox="0 0 44 44" version="1.1" xmlns="http://www.w3.org/2000/svg" xmlns:xlink="http://www.w3.org/1999/xlink">
    <title>icons_layersel_map</title>
    <g id="icons_layersel_map" stroke="none" stroke-width="1" fill="none" fill-rule="evenodd">
        <g id="Group" transform="translate(8.000000, 8.000000)" stroke="#FF8600" stroke-width="1.05">
            <path d="M14.9392393,0.31934477 L27.4332745,10.001081 C28.083394,10.5048641 28.1898756,11.4250484 27.6711079,12.0563699 C27.6009641,12.1417323 27.5211947,12.2191961 27.4332917,12.2873124 L14.939402,21.9688636 C14.38994,22.3946433 13.6102291,22.3946375 13.0607607,21.9688497 L0.566725479,12.2871135 C-0.0833939857,11.7833303 -0.189875564,10.8631461 0.328892133,10.2318246 C0.399035858,10.1464622 0.478805283,10.0689984 0.566708297,10.0008821 L13.060598,0.319330861 C13.61006,-0.106448825 14.3897709,-0.106443052 14.9392393,0.31934477 Z" id="Rectangle"></path>
            <path d="M25.2468192,14.0185833 C25.7890208,14.4387399 26.5178392,15.0035077 27.4332745,15.7128865 C28.083394,16.2166697 28.1898756,17.1368539 27.6711079,17.7681754 C27.6009641,17.8535378 27.5211947,17.9310016 27.4332917,17.9991179 L14.939402,27.6806691 C14.38994,28.1064488 13.6102291,28.1064431 13.0607607,27.6806552 L0.566725479,17.998919 C-0.0833939857,17.4951359 -0.189875564,16.5749516 0.328892133,15.9436301 C0.399035858,15.8582677 0.478805283,15.7808039 0.566708297,15.7126876 C1.53817061,14.9598986 2.26676748,14.3953068 2.75249868,14.0189124" id="Path"></path>
        </g>
    </g>
</svg>