<?xml version="1.0" encoding="UTF-8"?>
<svg width="60px" height="60px" viewBox="0 0 60 60" version="1.1" xmlns="http://www.w3.org/2000/svg" xmlns:xlink="http://www.w3.org/1999/xlink">
    <title>icons/atmo</title>
    <defs>
        <polygon id="path-1" points="0 0 50 0 50 47 0 47"></polygon>
    </defs>
    <g id="icons/atmo" stroke="none" stroke-width="1" fill="none" fill-rule="evenodd">
        <g id="Group-3" transform="translate(5.000000, 6.000000)">
            <mask id="mask-2" fill="white">
                <use xlink:href="#path-1"></use>
            </mask>
            <g id="Clip-2"></g>
            <path d="M49.9177038,19.700597 C49.1836928,10.3105473 42.826226,2.32945274 33.5663944,0.242885572 C32.0587495,-0.0964179104 29.8656315,-0.38199005 29.4614797,1.58716418 C29.1246865,3.23094527 30.7977562,4.06577114 32.1330422,4.37920398 C39.0016421,5.99512438 45.9395819,12.0150249 47.5859062,19.0349254 C49.7740714,28.3612935 43.6077843,37.819005 43.6067937,37.820995 C44.1743893,37.5453731 45.4997696,35.6488557 46.2852902,34.4637811 C47.0985467,33.2359204 47.7959067,31.9294527 48.3516155,30.5632836 C49.4501556,27.8657711 49.9761473,24.9652736 49.9989304,22.0548259 C50.0058644,21.2667662 49.979119,20.4806965 49.9177038,19.700597 M31.796249,7.17422886 C27.2059559,6.77422886 22.4621247,8.29960199 19.5161749,12.0170149 C16.9714051,15.2269652 16.4176775,20.3871642 20.6899982,22.3035821 C21.1258482,22.499602 21.7201891,22.6050746 22.0133973,22.2269652 C22.1451429,22.0568159 22.1758505,21.8319403 22.2065581,21.619005 C22.5730684,19.0498507 24.0450527,16.6956219 25.9528871,14.9463682 C29.2861491,11.8916418 34.6718685,12.3095522 38.0368287,15.1344279 C41.8584408,18.3433831 42.6835842,23.9622886 41.7029216,28.6279602 C40.6301363,33.7294527 37.0829115,37.6966169 32.7095529,40.3284577 C26.1311894,44.2876617 18.3631535,44.8797015 11.1775717,42.3115423 C7.13407225,40.8657711 3.41944146,38.6000995 0,35.9941294 C3.70769681,39.6339303 8.16624432,43.6687562 13.0566796,45.5682587 C22.3987284,49.2359204 35.2216338,45.5573134 41.6999499,37.9563184 C48.1941151,30.3364179 48.2802945,16.8637811 40.0922577,10.3762189 C37.7614507,8.52945274 34.8115386,7.43691542 31.796249,7.17422886 M10.0503051,40.3523383 C10.0503051,40.3523383 21.5220755,42.5672637 29.8794995,37.420995 C33.9101215,34.939403 36.5163065,30.7742289 36.719373,25.9921393 C36.7986184,24.1264677 36.4994668,21.6120398 34.6193684,20.7294527 C33.2305917,20.0767164 31.4178519,20.4329353 30.8076619,21.9662687 C30.0122356,23.9652736 31.2722384,26.0299502 30.1449718,27.8289552 C29.3198284,29.1443781 25.4358105,28.9702488 24.1758077,25.2020896 C22.915805,21.4339303 26.496709,14.8389055 32.5976186,14.9055721 C38.6995188,14.9712438 42.0823093,21.699602 39.5613132,29.4269652 C37.0413076,37.1553234 25.3030744,45.8816915 10.0503051,40.3523383" id="Fill-1" fill="#FF8600" mask="url(#mask-2)"></path>
        </g>
    </g>
</svg>