<?xml version="1.0" encoding="UTF-8"?>
<svg width="44px" height="44px" viewBox="0 0 44 44" version="1.1" xmlns="http://www.w3.org/2000/svg" xmlns:xlink="http://www.w3.org/1999/xlink">
    <title>icons_pinmap</title>
    <g id="icons_pinmap" stroke="none" stroke-width="1" fill="none" fill-rule="evenodd">
        <path d="M21.9993485,12 C26.1345837,12 29.4989576,15.3030152 29.5,19.3625769 C29.5,20.4220491 29.2790093,21.4334216 28.8432826,22.3688068 C26.96825,26.3974108 23.3727219,30.6498829 22.3159801,31.8572361 C22.2367571,31.9480626 22.1215709,32 21.9993485,32 C21.8781685,32 21.7622005,31.9480626 21.6837593,31.8572361 C20.6262357,30.6498829 17.0307076,26.3963874 15.1556751,22.3688068 C14.7209907,21.4334216 14.5,20.4220491 14.5,19.3625769 C14.5,15.3030152 17.8643739,12 21.9993485,12 Z M22,15.6363637 C19.6988136,15.6363637 17.8333333,17.5018438 17.8333333,19.8030303 C17.8333333,22.1042168 19.6988136,23.969697 22,23.969697 C24.3011864,23.969697 26.1666667,22.1042168 26.1666667,19.8030303 C26.1666667,17.5018438 24.3011864,15.6363637 22,15.6363637 Z" id="loader_pinmap" stroke="#1A1A1A"></path>
    </g>
</svg>