<?xml version="1.0" encoding="UTF-8"?>
<svg width="60px" height="60px" viewBox="0 0 60 60" version="1.1" xmlns="http://www.w3.org/2000/svg" xmlns:xlink="http://www.w3.org/1999/xlink">
    <title>icons/land</title>
    <defs>
        <polygon id="path-1" points="0 0 52 0 52 50 0 50"></polygon>
    </defs>
    <g id="icons/land" stroke="none" stroke-width="1" fill="none" fill-rule="evenodd">
        <g id="Group-3" transform="translate(4.000000, 5.000000)">
            <mask id="mask-2" fill="white">
                <use xlink:href="#path-1"></use>
            </mask>
            <g id="Clip-2"></g>
            <path d="M20.7197406,50 L25.9997821,50 L31.2806951,50 C25.5623204,42.6732948 28.4572367,30.6197388 25.9997821,27.4716805 C23.543199,30.6197388 26.4363725,42.6732948 20.7197406,50 M11.4537426,4.26438494 C15.3900271,5.37638134 16.5830254,7.76232376 15.1007097,11.5521183 C11.1670395,10.4383899 9.97316977,8.05504555 11.4537426,4.26438494 M12.099478,12.9525063 C18.1725279,12.670177 20.9890149,15.4692209 20.706669,21.5063914 C14.6318762,21.7878546 11.8153893,18.9879447 12.099478,12.9525063 M4.88135877,31.8633734 C8.45251083,35.5605016 11.8293323,35.4721654 15.2000536,31.5949008 C11.6289016,27.8986386 8.25295158,27.9861087 4.88135877,31.8633734 M-0.000435718894,26.7771157 C2.64524941,29.6766204 5.28570591,29.6757543 8.06733533,26.7771157 C5.28570591,23.8784772 2.64524941,23.8784772 -0.000435718894,26.7771157 M11.5574437,26.7771157 C15.9695332,31.5897045 20.2604929,31.5897045 24.671711,26.7771157 C20.2604929,21.9636609 15.9695332,21.9636609 11.5574437,26.7771157 M15.7630024,38.646205 C21.0831301,38.8930266 23.5492991,36.4412651 23.3018107,31.1532199 C17.981683,30.9081304 15.5137712,33.3590259 15.7630024,38.646205 M18.8226205,5.15380885 C23.4813269,7.5466796 24.3701935,10.843697 21.5388921,15.2301936 C16.8801857,12.839055 15.9913191,9.5394395 18.8226205,5.15380885 M4.30969558,11.8101985 C8.73049948,11.3867045 10.887308,13.3257699 10.901251,17.7391139 C6.48044711,18.1652059 4.32363859,16.2252745 4.30969558,11.8101985 M40.5458217,4.26438494 C36.6104087,5.37638134 35.4174103,7.76232376 36.8988546,11.5521183 C40.8325247,10.4383899 42.0263945,8.05504555 40.5458217,4.26438494 M39.9009577,12.9525063 C33.8270364,12.670177 31.0105494,15.4692209 31.2937667,21.5063914 C37.3676881,21.7878546 40.1850465,18.9879447 39.9009577,12.9525063 M47.1182055,31.8633734 C43.546182,35.5605016 40.170232,35.4721654 36.7995107,31.5949008 C40.3706627,27.8986386 43.7474841,27.9861087 47.1182055,31.8633734 M52,26.7771157 C49.3551863,29.6766204 46.7138584,29.6757543 43.9331004,26.7771157 C46.7138584,23.8784772 49.3551863,23.8784772 52,26.7771157 M40.4421206,26.7771157 C36.0309025,31.5897045 31.7390714,31.5897045 27.3278533,26.7771157 C31.7390714,21.9636609 36.0309025,21.9636609 40.4421206,26.7771157 M25.9997821,0 C29.4724617,3.15412062 29.4724617,6.21903904 25.9997821,9.36363321 C22.5271026,6.21903904 22.5271026,3.15412062 25.9997821,0 M25.9997821,24.9904736 C30.8301618,20.6135033 30.8301618,16.3543146 25.9997821,11.9773444 C21.1702739,16.3543146 21.1702739,20.6135033 25.9997821,24.9904736 M36.2365618,38.646205 C30.9173056,38.8930266 28.4502652,36.4412651 28.6977535,31.1532199 C34.0187527,30.9081304 36.4857931,33.3590259 36.2365618,38.646205 M33.1778152,5.15380885 C28.5173659,7.5466796 27.6293708,10.843697 30.4606722,15.2301936 C35.1193786,12.839055 36.0082451,9.5394395 33.1778152,5.15380885 M47.6898687,11.8101985 C43.2699362,11.3867045 41.1122563,13.3257699 41.0983133,17.7391139 C45.5191172,18.1652059 47.6759257,16.2252745 47.6898687,11.8101985 M47.2611213,21.8883154 C43.9357147,18.4458032 40.7924386,18.5289431 37.6543911,22.1386012 C40.9789263,25.5802473 44.1222024,25.4979735 47.2611213,21.8883154 M4.73931441,21.8883154 C8.06384958,18.4458032 11.2071257,18.5289431 14.3460446,22.1386012 C11.0215094,25.5802473 7.87823333,25.4979735 4.73931441,21.8883154" id="Fill-1" fill="#FF8600" mask="url(#mask-2)"></path>
        </g>
    </g>
</svg>