<svg width="38" height="38" viewBox="0 0 38 38" fill="none" xmlns="http://www.w3.org/2000/svg">
<path d="M26 26H12.6M11 24.4444L12.8 13.5556M14.6 12H23.4M25.2 13.5556L27 24.7623" stroke="#1A1A1A"/>
<path d="M27 27.5C27.8284 27.5 28.5 26.8284 28.5 26C28.5 25.1716 27.8284 24.5 27 24.5C26.1716 24.5 25.5 25.1716 25.5 26C25.5 26.8284 26.1716 27.5 27 27.5Z" stroke="#1A1A1A"/>
<path d="M25 13.5C25.8284 13.5 26.5 12.8284 26.5 12C26.5 11.1716 25.8284 10.5 25 10.5C24.1716 10.5 23.5 11.1716 23.5 12C23.5 12.8284 24.1716 13.5 25 13.5Z" stroke="#1A1A1A"/>
<path d="M13 13.5C13.8284 13.5 14.5 12.8284 14.5 12C14.5 11.1716 13.8284 10.5 13 10.5C12.1716 10.5 11.5 11.1716 11.5 12C11.5 12.8284 12.1716 13.5 13 13.5Z" stroke="#1A1A1A"/>
<path d="M11 27.5C11.8284 27.5 12.5 26.8284 12.5 26C12.5 25.1716 11.8284 24.5 11 24.5C10.1716 24.5 9.5 25.1716 9.5 26C9.5 26.8284 10.1716 27.5 11 27.5Z" stroke="#1A1A1A"/>
</svg>
