<?xml version="1.0" encoding="UTF-8"?>
<svg width="24px" height="24px" viewBox="0 0 24 24" version="1.1" xmlns="http://www.w3.org/2000/svg" xmlns:xlink="http://www.w3.org/1999/xlink">
    <title>icons_sat</title>
    <g id="icons_sat" stroke="none" stroke-width="1" fill="none" fill-rule="evenodd" stroke-linecap="round">
        <g id="sat_icon" transform="translate(3.000000, 3.000000)" stroke="#999999" stroke-width="0.75">
            <path d="M7.71988781,4.48828406 C7.48056281,4.24896656 7.09251281,4.24901906 6.85326281,4.48829906 C6.23503781,5.10648656 5.10643781,6.23512406 4.48825031,6.85327406 C4.24891781,7.09259906 4.24892531,7.48057406 4.48824281,7.71989906 C5.66458781,8.89627406 8.90848781,12.1400991 10.0847878,13.3164741 C10.3241128,13.5557991 10.7120878,13.5557991 10.9514128,13.3164741 C11.5696378,12.6982491 12.6982378,11.5696491 13.3163878,10.9514991 C13.5557128,10.7121741 13.5557128,10.3241991 13.3164628,10.0848741 C12.1400878,8.90849906 8.89618781,5.66467406 7.71988781,4.48828406 Z" id="Path" stroke-linejoin="round"></path>
            <path d="M17.6252878,3.41110406 C17.8646128,3.17181656 17.8645378,2.78377406 17.6252878,2.54449406 C17.0070628,1.92630656 15.8784628,0.797684063 15.2602378,0.179496563 C15.0209128,-0.0598359375 14.6329378,-0.0598209375 14.3936878,0.179474063 C13.4734378,1.09970906 11.3330878,3.24002906 10.4128378,4.16027156 C10.1735878,4.39955906 10.1735878,4.78754906 10.4129128,5.02688156 C11.0310628,5.64509906 12.1596628,6.77369906 12.7778878,7.39184906 C13.0171378,7.63117406 13.4051878,7.63117406 13.6445128,7.39192406 C14.5647628,6.47167406 16.7050378,4.33134656 17.6252878,3.41110406 Z" id="Path" stroke-linejoin="round"></path>
            <path d="M7.39191281,13.6445241 C7.63116281,13.4051991 7.63116281,13.0171491 7.39191281,12.7778991 C6.77368781,12.1596741 5.64508781,11.0310741 5.02688531,10.4128491 C4.78754531,10.1735241 4.39956281,10.1735991 4.16027531,10.4128491 C3.24003281,11.3330991 1.09971281,13.4734491 0.179470313,14.3936241 C-0.0598171875,14.6329491 -0.0598396875,15.0209241 0.179500313,15.2602491 C0.797687813,15.8784741 1.92631031,17.0070741 2.54449781,17.6252991 C2.78377781,17.8645491 3.17181281,17.8645491 3.41110781,17.6252991 C4.33134281,16.7050491 6.47166281,14.5646991 7.39191281,13.6445241 Z" id="Path" stroke-linejoin="round"></path>
            <line x1="11.5953628" y1="2.97776156" x2="14.8269628" y2="6.20939906" id="Path" stroke-linejoin="round"></line>
            <line x1="1.36197281" y1="13.2111741" x2="4.59357281" y2="16.4427741" id="Path" stroke-linejoin="round"></line>
            <line x1="13.2111628" y1="1.36196906" x2="16.4427628" y2="4.59356906" id="Path" stroke-linejoin="round"></line>
            <line x1="2.97778781" y1="11.5953741" x2="6.20938781" y2="14.8269741" id="Path" stroke-linejoin="round"></line>
            <line x1="6.20938781" y1="11.5953741" x2="7.28661281" y2="10.5181491" id="Path" stroke-linejoin="round"></line>
            <line x1="10.5181378" y1="7.28662406" x2="11.5953628" y2="6.20939906" id="Path" stroke-linejoin="round"></line>
            <path d="M14.3888878,13.4171241 C14.6570878,13.6851741 14.6570878,14.1206991 14.3888878,14.3888241 C14.1206878,14.6570241 13.6852378,14.6570241 13.4171128,14.3888241 C13.1489128,14.1206991 13.1489128,13.6851741 13.4171128,13.4171241 C13.6852378,13.1489241 14.1206878,13.1489241 14.3888878,13.4171241 Z" id="Path"></path>
            <path d="M12.1339378,12.1339491 C12.1339378,12.1339491 12.7890628,12.7890741 13.4171128,13.4171241" id="Path" stroke-linejoin="round"></path>
        </g>
    </g>
</svg>