<?xml version="1.0" encoding="UTF-8"?>
<svg width="44px" height="44px" viewBox="0 0 44 44" version="1.1" xmlns="http://www.w3.org/2000/svg" xmlns:xlink="http://www.w3.org/1999/xlink">
    <title>icons_atmo_map</title>
    <defs>
        <polygon id="path-1" points="0 0 30 0 30 28 0 28"></polygon>
    </defs>
    <g id="icons_atmo_map" stroke="none" stroke-width="1" fill="none" fill-rule="evenodd">
        <g id="Group-3" transform="translate(7.000000, 8.000000)">
            <mask id="mask-2" fill="white">
                <use xlink:href="#path-1"></use>
            </mask>
            <g id="Clip-2"></g>
            <path d="M29.9506223,11.7365259 C29.5102157,6.14245369 25.6957356,1.38775908 20.1398366,0.144697788 C19.2352497,-0.0574404573 17.9193789,-0.22756854 17.6768878,0.945544617 C17.4748119,1.92481846 18.4786537,2.42216153 19.2798253,2.60888748 C23.4009853,3.57156346 27.5637491,7.15788716 28.5515437,11.3399555 C29.8644428,16.8960898 26.1646706,22.530471 26.1640762,22.5316566 C26.5046336,22.3674563 27.2998617,21.2376162 27.7711741,20.5316143 C28.259128,19.8001228 28.677544,19.0218016 29.0109693,18.2079136 C29.6700934,16.6008849 29.9856884,14.872929 29.9993582,13.1390452 C30.0035186,12.6695628 29.9874714,12.201266 29.9506223,11.7365259 M19.0777494,4.27400868 C16.3235735,4.03571081 13.4772748,4.94444374 11.7097049,7.15907272 C10.1828431,9.07138351 9.85060651,12.1455446 12.4139989,13.2872404 C12.6755089,13.4040182 13.0321135,13.466853 13.2080384,13.2415963 C13.2870857,13.1402308 13.3055103,13.0062623 13.3239349,12.8794072 C13.543841,11.3488473 14.4270316,9.94632793 15.5717323,8.90421933 C17.5716895,7.08438234 20.8031211,7.33335027 22.8220972,9.0162549 C25.1150645,10.9279729 25.6101505,14.2754059 25.021753,17.054955 C24.3780818,20.0941421 22.2497469,22.457559 19.6257317,24.0254642 C15.6787136,26.3841389 11.0178921,26.7368434 6.70654301,25.2068763 C4.28044335,24.3455658 2.05166488,22.995804 0,21.4433111 C2.22461809,23.6117032 4.89974659,26.0154292 7.83400774,27.1470477 C13.439237,29.3320377 21.1329803,27.1405272 25.01997,22.6122748 C28.9164691,18.0727596 28.9681767,10.0465079 24.0553546,6.18157722 C22.6568704,5.0813761 20.8869232,4.43050281 19.0777494,4.27400868 M6.03018303,24.0396909 C6.03018303,24.0396909 12.9132453,25.3592209 17.9276997,22.2933587 C20.3460729,20.8149635 21.9097839,18.3335831 22.0316238,15.4846787 C22.0791711,14.3732148 21.8996801,12.8752578 20.771621,12.3494612 C19.938355,11.960597 18.8507111,12.1728125 18.4845971,13.0862877 C18.0073414,14.2771843 18.763343,15.5072044 18.0869831,16.578952 C17.5918971,17.3626082 15.2614863,17.2588716 14.5054846,15.0140108 C13.749483,12.76915 15.8980254,8.840199 19.5585712,8.87991532 C23.2197113,8.91903885 25.2493856,12.9274225 23.7367879,17.530958 C22.2247846,22.1350863 15.1818446,27.3337737 6.03018303,24.0396909" id="Fill-1" fill="#FF8600" mask="url(#mask-2)"></path>
        </g>
    </g>
</svg>