<?xml version="1.0" encoding="UTF-8"?>
<svg width="44px" height="44px" viewBox="0 0 44 44" version="1.1" xmlns="http://www.w3.org/2000/svg" xmlns:xlink="http://www.w3.org/1999/xlink">
    <title>icons_marine_map</title>
    <g id="icons_marine_map" stroke="none" stroke-width="1" fill="none" fill-rule="evenodd">
        <g id="Fill-4" transform="translate(7.000000, 8.000000)" fill="#FF8600">
            <path d="M29.9088522,23.8752 C29.8483923,23.86305 29.7590766,23.84235 29.6422792,23.8203 C29.5277718,23.79195 29.3779963,23.78655 29.1993649,23.77035 C29.1086751,23.75955 29.0147791,23.76675 28.9117225,23.7672 C28.8599652,23.769 28.8068338,23.7708 28.7518703,23.7726 C28.6969068,23.77665 28.6410272,23.78565 28.5823995,23.79285 C28.5237717,23.8005 28.4637699,23.8086 28.4019359,23.8167 C28.34056,23.8275 28.2787261,23.84415 28.214602,23.85945 C28.0840636,23.88735 27.9544414,23.93235 27.8165746,23.97825 C27.5458793,24.0723 27.2683135,24.20685 26.9967022,24.3207 C26.4571437,24.5529 25.9363645,24.64965 25.286421,24.5844 C25.2058078,24.57585 25.1242786,24.5673 25.0422914,24.55875 L25.0116034,24.5556 L25.0038169,24.55515 C24.9946563,24.5547 25.0560322,24.5556 25.0258023,24.5547 L25.0083972,24.55155 L24.9369446,24.5403 C24.8897676,24.53265 24.8416746,24.525 24.7940395,24.5169 C24.7459464,24.50925 24.6978534,24.5016 24.6493023,24.49395 C24.6264008,24.48945 24.598003,24.48675 24.5796818,24.48135 L24.5260924,24.46515 C24.4555559,24.4431 24.3845614,24.42285 24.3140249,24.4035 C24.2407402,24.3765 24.1660814,24.3459 24.0914226,24.3198 C24.0534062,24.30855 24.018596,24.2901 23.9837858,24.2721 C23.9485175,24.255 23.9132493,24.2379 23.877981,24.2208 C23.8605759,24.21225 23.8427128,24.2046 23.8253076,24.19515 L23.7740084,24.16365 L23.6714098,24.10245 C23.6027054,24.0633 23.5317109,24.0075 23.4616324,23.96205 C23.299032,23.8392 23.1345995,23.71455 22.9678769,23.58855 C22.9197838,23.5521 22.8712327,23.5161 22.8226816,23.47965 C22.7686342,23.44185 22.7141287,23.4036 22.6596232,23.3658 C22.5542765,23.28975 22.4274024,23.2164 22.3046505,23.1426 C22.2441907,23.1048 22.1773184,23.07195 22.1109041,23.0391 C22.0444899,23.0058 21.9776176,22.97295 21.9107454,22.93965 C21.7742526,22.88025 21.6331796,22.82985 21.4921066,22.7763 C21.3514916,22.73355 21.2090446,22.6953 21.0656814,22.65615 C20.9241504,22.62375 20.7839934,22.6035 20.6410883,22.57785 L20.5343675,22.5603 L20.4308529,22.55085 C20.3616904,22.54455 20.292528,22.53825 20.2229076,22.53195 C20.1532871,22.52565 20.0832086,22.5198 20.0135882,22.51395 C19.9389294,22.51305 19.8647287,22.5126 19.790528,22.5117 L19.6132706,22.5099 L19.524871,22.509 L19.5024276,22.50855 L19.4731137,22.51035 L19.4126538,22.5144 C19.2523436,22.527 19.0879111,22.5378 18.9285169,22.5594 C18.7750771,22.58775 18.6211793,22.61385 18.4663654,22.6494 L18.2327705,22.71645 C18.1553635,22.7403 18.0761245,22.7601 18.0005496,22.79205 C17.848942,22.8519 17.6918379,22.91085 17.552139,22.9842 C17.4816025,23.0193 17.4064857,23.05485 17.3391554,23.0913 L17.1431189,23.20155 C17.0748725,23.23935 17.0189929,23.27355 16.9612813,23.3082 L16.7922685,23.41125 C16.6924181,23.472 16.5870714,23.5377 16.5046261,23.58225 C16.3250786,23.6862 16.1830896,23.7456 16.032856,23.8041 C15.8835384,23.85225 15.7287245,23.89005 15.5555895,23.91435 L15.4236771,23.9301 C15.3797063,23.93595 15.3361935,23.9427 15.2871843,23.9418 L15.0109927,23.9517 L15.0041223,23.95125 L14.9578613,23.9499 L14.8653394,23.9463 L14.6798376,23.94 L14.6335766,23.9382 C14.6180036,23.93775 14.6015146,23.9373 14.5951021,23.93505 L14.5410547,23.92605 C14.5048704,23.92065 14.4686861,23.9157 14.4325018,23.91165 L14.3784543,23.90625 L14.3184525,23.8923 L14.1975327,23.86755 C14.1773795,23.86305 14.1563101,23.86125 14.1375309,23.85495 L14.0811933,23.8365 L13.9676021,23.80275 C13.8178265,23.74425 13.6758374,23.68485 13.496748,23.58045 C13.4143027,23.53545 13.308956,23.4702 13.2091056,23.409 L13.0400928,23.30595 C12.9823811,23.27085 12.9269596,23.2371 12.8582552,23.19885 L12.6626767,23.0886 C12.5948884,23.05215 12.5202296,23.0166 12.4492351,22.9815 C12.3095362,22.90815 12.1524321,22.84875 12.0008245,22.7889 C11.9252496,22.75695 11.8460106,22.7367 11.7681456,22.71285 L11.5345507,22.6458 C11.3797368,22.61025 11.225839,22.5837 11.0723992,22.55535 C10.9221656,22.53555 10.7742221,22.5261 10.6258206,22.51305 C10.5507038,22.50495 10.4806254,22.50675 10.4100889,22.5063 L10.1980213,22.50675 L10.0922166,22.5072 L10.0395432,22.50765 L10.0134355,22.50765 L9.95526581,22.509 L9.94427311,22.5099 L9.76930593,22.527 L9.59525482,22.5441 L9.50822926,22.55265 L9.39372195,22.5693 C9.23936609,22.5945 9.08226205,22.617 8.93386058,22.65075 C8.79049742,22.68945 8.64805032,22.7277 8.50697731,22.77045 C8.3659043,22.824 8.22437326,22.87395 8.08788055,22.9338 C8.02100828,22.96665 7.954136,22.99995 7.88726373,23.0328 C7.82084949,23.0661 7.75351919,23.0985 7.69351736,23.13675 C7.57030749,23.2101 7.44343339,23.28345 7.33762863,23.3595 C7.28312315,23.3973 7.22861767,23.43555 7.17457022,23.47335 C7.12601912,23.5098 7.07746801,23.5458 7.02937494,23.58225 C6.86265229,23.7078 6.69821979,23.83245 6.53561941,23.95485 C6.46554093,24.0003 6.39500443,24.0561 6.32630004,24.09525 L6.22370149,24.156 L6.17240221,24.1875 C6.1549971,24.1965 6.13759199,24.20415 6.12018688,24.2127 C6.08491862,24.2298 6.04965037,24.2469 6.01484015,24.264 C5.98002992,24.28155 5.9452197,24.3 5.90720327,24.31125 C5.83208648,24.3396 5.75788574,24.36705 5.68414303,24.39495 C5.52612294,24.435 5.37222511,24.48405 5.20412837,24.50745 C5.16290574,24.5151 5.1216831,24.52275 5.0809185,24.52995 L5.01954258,24.5412 L5.00442762,24.5439 C4.97419769,24.5439 5.03648966,24.5457 5.02641302,24.5457 L5.01771046,24.5466 L4.98198418,24.5493 C4.88717213,24.5574 4.79327613,24.5655 4.70029619,24.57315 L4.63067575,24.57945 C4.60823231,24.58125 4.58212465,24.5844 4.56700968,24.58395 C4.53174143,24.58485 4.4969312,24.5853 4.46212098,24.5862 C4.39158448,24.58665 4.32242206,24.59565 4.25005344,24.59295 C4.17631073,24.58845 4.10348408,24.5844 4.03157348,24.5799 C3.95783077,24.5772 3.8909585,24.561 3.820422,24.55335 C3.54148218,24.51195 3.27948945,24.42105 3.00879416,24.3099 C2.73764084,24.19605 2.46007512,24.0615 2.1889218,23.967 C2.05059696,23.92065 1.92097469,23.87565 1.79043635,23.8473 C1.72585422,23.832 1.66402028,23.8149 1.60218633,23.8041 C1.54035238,23.796 1.47989252,23.78745 1.42126477,23.7798 C0.953158875,23.72175 0.597270146,23.76675 0.360469022,23.80635 C0.241381416,23.8275 0.151607683,23.8482 0.0911478213,23.86035 C0.0311459892,23.8734 0,23.8797 0,23.8797 L0,23.9094 C0,23.9094 0.121835781,23.9445 0.349934349,24.01065 C0.377874134,24.01875 0.407646035,24.02685 0.439250053,24.03585 C0.469938013,24.04575 0.50245809,24.0588 0.536352255,24.07095 C0.603224526,24.09525 0.676051177,24.12135 0.755290238,24.1497 C0.834529299,24.174 0.914226389,24.219 1.00033589,24.2568 C1.04293261,24.27615 1.08690342,24.29595 1.13224831,24.3162 C1.17667715,24.3387 1.22064796,24.36615 1.26645088,24.3918 C1.31133775,24.41745 1.35759871,24.444 1.40523375,24.471 C1.45057864,24.5016 1.4968396,24.5331 1.54493267,24.5655 C1.64020275,24.62535 1.73501481,24.70365 1.8334911,24.78105 C2.02952762,24.94575 2.2374729,25.1334 2.48984702,25.3539 C2.74405325,25.5735 3.06284161,25.79715 3.43018107,25.9776 C3.47644203,25.9992 3.52316101,26.02125 3.57033803,26.04375 C3.61705701,26.06625 3.66515008,26.08785 3.71370118,26.1036 C3.81126141,26.1378 3.91019573,26.17245 4.01050414,26.20755 C4.11218663,26.24085 4.22302971,26.26335 4.33204067,26.28945 C4.38746221,26.3016 4.44288375,26.3142 4.49876332,26.3268 C4.52945128,26.334 4.54914654,26.33625 4.57250603,26.34075 L4.64166845,26.35245 C4.73373233,26.36775 4.8271703,26.38305 4.92106629,26.3988 L4.95633454,26.4042 L4.96549513,26.40555 C4.96137287,26.406 5.02961923,26.4078 5.00534367,26.40735 L5.02595499,26.4087 L5.10702617,26.41455 C5.16153165,26.41815 5.21649516,26.42175 5.27145867,26.42535 C5.48993862,26.44785 5.72536566,26.433 5.96445693,26.424 C6.08537665,26.4114 6.20950258,26.39385 6.33408654,26.3754 C6.39637852,26.3682 6.45912852,26.3529 6.52233656,26.3376 C6.5855446,26.32185 6.64875263,26.30655 6.71287673,26.2908 C6.74448075,26.2827 6.7765428,26.27505 6.80860484,26.26605 L6.90250084,26.23455 C6.96525085,26.2125 7.02845888,26.19045 7.09166692,26.1684 C7.21854102,26.12295 7.3339644,26.0658 7.45717426,26.01315 C7.51671807,25.9857 7.57030749,25.95735 7.62756115,25.929 C7.68252466,25.90155 7.74435861,25.8714 7.79382577,25.8444 C7.89321811,25.7913 7.99306849,25.73775 8.0933769,25.6842 C8.13963785,25.65945 8.18635684,25.63515 8.23307582,25.61085 L8.36086598,25.5501 C8.44743351,25.50465 8.52392439,25.47855 8.60270543,25.44525 C8.64209594,25.4268 8.68011237,25.41735 8.71858683,25.40565 L8.83263611,25.3701 C8.91004305,25.3521 8.98699197,25.33455 9.06485694,25.31655 C9.14638615,25.3062 9.22837339,25.29585 9.31036062,25.2855 C9.38914165,25.281 9.4619683,25.28145 9.53754313,25.2756 C9.55723839,25.27425 9.57281138,25.27245 9.59617088,25.27155 L9.68319643,25.27335 L9.85816361,25.27695 L10.0340468,25.2801 L10.0450395,25.28055 C9.95847201,25.28235 10.0258023,25.28145 10.0088552,25.28235 L10.0267184,25.28415 L10.0619866,25.2882 L10.1325231,25.2954 L10.2735961,25.30935 C10.3207732,25.3143 10.3693243,25.31655 10.4114629,25.3278 C10.4984885,25.34445 10.5855141,25.36155 10.6729976,25.37865 C10.7526947,25.4016 10.8328499,25.42455 10.913463,25.44795 L11.0256802,25.49295 C11.0632386,25.50825 11.101713,25.5186 11.1374393,25.53975 C11.210266,25.57845 11.2826346,25.60545 11.3595835,25.65495 C11.398058,25.6779 11.4342423,25.6968 11.4750069,25.722 L11.6009649,25.80435 C11.6403554,25.8291 11.6902806,25.86375 11.7383737,25.8966 L11.8872332,25.9965 C11.9994504,26.07165 12.1057132,26.14455 12.2403738,26.22735 C12.3622095,26.30745 12.5092369,26.38755 12.6530581,26.46495 C12.7226786,26.505 12.8051238,26.53695 12.8806986,26.57295 C12.9585636,26.60625 13.0350545,26.64405 13.1152096,26.67285 L13.356133,26.75565 L13.4770527,26.79615 C13.5173593,26.8092 13.5572079,26.81685 13.5975144,26.8272 L13.8393539,26.8848 L13.9607316,26.9109 L14.0903539,26.9289 L14.3500565,26.96175 L14.4796788,26.9766 C14.5039543,26.9793 14.5181532,26.97975 14.5332682,26.98065 L14.5795291,26.98245 L15,27 L15.453907,26.9802 C15.5281077,26.97885 15.6073468,26.9685 15.6865858,26.95815 L15.9224709,26.92665 C16.2385111,26.8803 16.565544,26.7903 16.8847904,26.6715 C16.9649455,26.6427 17.0409784,26.6049 17.1188433,26.57115 C17.1948762,26.5356 17.2773214,26.50365 17.3469419,26.4636 C17.490305,26.38575 17.6373324,26.30565 17.7591682,26.2251 C17.8938288,26.14275 18.0000916,26.0694 18.1118507,25.9947 L18.2607103,25.89435 C18.3088033,25.86105 18.3587285,25.8264 18.398119,25.80165 L18.5240771,25.71975 C18.5648417,25.6941 18.601026,25.6752 18.6399585,25.65225 C18.7164494,25.6023 18.789276,25.5753 18.8621027,25.5366 C18.8978289,25.51545 18.9363034,25.5051 18.9738618,25.48935 L19.086079,25.44435 C19.1666921,25.42095 19.2468472,25.39755 19.3270024,25.3746 C19.4034932,25.3584 19.4758619,25.3449 19.5505206,25.32645 L19.5784604,25.31925 C19.5834987,25.31835 19.587163,25.317 19.5931173,25.3161 L19.6151028,25.31385 L19.7035024,25.3062 L19.8798437,25.29045 L19.9677853,25.28235 L20.0117561,25.2783 L20.0337415,25.2765 C20.0177105,25.2765 20.0854988,25.2747 20.0003054,25.2765 L20.0090079,25.27605 L20.1500809,25.272 L20.291612,25.2666 L20.3621485,25.2639 C20.3845919,25.2639 20.4061193,25.26615 20.4281047,25.26705 C20.5160463,25.27155 20.6035299,25.2756 20.6910135,25.27965 C20.7730007,25.29 20.8549879,25.30035 20.9365171,25.3107 C21.0148401,25.3287 21.0922471,25.34625 21.169196,25.3638 L21.2837033,25.3998 C21.3221778,25.41105 21.3606522,25.42095 21.4000427,25.43895 C21.4792818,25.47225 21.5557727,25.49835 21.6427983,25.5438 L21.7705884,25.60455 C21.8173074,25.62885 21.8635684,25.65315 21.9102873,25.67745 C22.0105957,25.73145 22.1109041,25.78455 22.2098385,25.83765 C22.2597637,25.86465 22.3211396,25.8948 22.3761031,25.92225 C22.4333567,25.9506 22.4869462,25.97895 22.5460319,26.00595 C22.6692418,26.0586 22.7846652,26.11575 22.9115393,26.16075 C22.9747473,26.1828 23.0374973,26.2044 23.1002473,26.22645 L23.1941433,26.25795 L23.2898714,26.2827 C23.3535375,26.298 23.4172036,26.31375 23.4804116,26.32905 C23.5431616,26.34435 23.6059116,26.35965 23.6682036,26.36685 C23.7927876,26.3853 23.9155394,26.4024 24.0382912,26.41545 C24.1660814,26.42175 24.2924975,26.42625 24.4166234,26.42985 L24.5091453,26.4321 C24.5393752,26.43255 24.5599866,26.42895 24.5856362,26.4276 C24.6341873,26.42355 24.6827384,26.4195 24.7312895,26.4159 C24.8403005,26.4069 24.9483954,26.3979 25.0555742,26.38935 C25.162295,26.37315 25.2676418,26.3574 25.3725305,26.3412 C25.4247458,26.3322 25.475587,26.3268 25.5278024,26.31465 C25.5800177,26.30205 25.632233,26.28945 25.6839904,26.2773 C25.787505,26.2512 25.8878134,26.23005 25.9881218,26.1972 C26.0884302,26.1621 26.1869065,26.12745 26.2844667,26.0928 C26.3330178,26.0775 26.3806528,26.05545 26.4278299,26.03295 C26.4745488,26.0109 26.5208098,25.98885 26.5670708,25.9668 C26.9339522,25.78635 27.2518245,25.5627 27.5055727,25.3431 C27.7574888,25.1226 27.9654341,24.93495 28.1619286,24.7698 C28.2604049,24.6915 28.355675,24.6132 28.4514031,24.55335 C28.4994962,24.52095 28.5462152,24.489 28.59156,24.4584 C28.6391951,24.43095 28.685456,24.4044 28.7308009,24.37875 C28.7766039,24.3531 28.8205747,24.32565 28.8650035,24.3027 C28.9103484,24.28245 28.9547772,24.26265 28.997374,24.2433 C29.0834835,24.2055 29.1650127,24.16005 29.2424196,24.1362 C29.3207426,24.10785 29.3931112,24.0813 29.4599835,24.057 C29.4934196,24.04485 29.5254817,24.0318 29.5570857,24.02145 C29.5891478,24.0129 29.6193777,24.00435 29.6482335,23.99625 C29.7631989,23.96565 29.8511405,23.9382 29.9102263,23.9211 C29.9697701,23.90355 30,23.89455 30,23.89455 C30,23.89455 29.969312,23.8878 29.9088522,23.8752 L29.9088522,23.8752 Z M2.54526856,20.35215 C2.5709182,20.35935 2.59794192,20.3688 2.62588171,20.3778 C2.68176128,20.39535 2.74267917,20.41425 2.80817735,20.43495 C2.87413356,20.4525 2.9405478,20.48535 3.01200037,20.5128 C3.04772665,20.52675 3.08391096,20.54115 3.12192739,20.556 C3.15856973,20.5722 3.19521207,20.592 3.2332285,20.61045 C3.27078689,20.62935 3.30926135,20.6487 3.34865187,20.6685 C3.38621027,20.69055 3.42514275,20.7135 3.46453327,20.7369 C3.54377233,20.78055 3.62301139,20.83725 3.7045406,20.89395 C3.86759901,21.01365 4.04073407,21.14955 4.25051147,21.3102 C4.46166295,21.4695 4.72686189,21.6324 5.0323674,21.76335 C5.07084186,21.7791 5.10977434,21.7953 5.14870683,21.8115 C5.18809735,21.8277 5.22748786,21.84345 5.26825247,21.85515 C5.34932364,21.8799 5.43176891,21.9051 5.51513023,21.93075 C5.59940762,21.9546 5.6914715,21.9708 5.78261932,21.99015 C5.82842224,21.99915 5.8746832,22.00815 5.92094415,22.01715 C5.94613576,22.02255 5.96262481,22.02435 5.98232007,22.02705 L6.03957373,22.0356 C6.11652264,22.04685 6.19392959,22.0581 6.27225259,22.06935 L6.30156646,22.0734 L6.30889493,22.07475 C6.30568872,22.07475 6.36202632,22.0761 6.34233106,22.07565 L6.35927815,22.077 L6.42660845,22.08105 C6.47195334,22.08375 6.51775627,22.08645 6.56355919,22.0887 C6.74493878,22.10535 6.94051727,22.09455 7.13930196,22.0878 C7.2400684,22.0788 7.34312498,22.06575 7.44709762,22.0527 C7.49885493,22.0473 7.55107026,22.03605 7.6032856,22.0248 C7.65595896,22.01355 7.70863232,22.0023 7.76176372,21.99105 C7.78832941,21.9852 7.81489511,21.9798 7.84146081,21.97305 L7.91978381,21.9501 C7.97199915,21.9339 8.02421448,21.91815 8.07688784,21.90195 C8.18223457,21.8691 8.27842072,21.8277 8.38101927,21.78945 C8.4300284,21.7692 8.47491526,21.74895 8.52255031,21.72825 C8.5678952,21.708 8.61965251,21.6864 8.66087514,21.6666 C8.74332041,21.6279 8.8262237,21.5892 8.90958503,21.55005 C8.94851751,21.5325 8.98699197,21.5145 9.02592446,21.49695 L9.13218724,21.4524 C9.20409784,21.41955 9.2677639,21.40065 9.33326208,21.37635 C9.36578216,21.3633 9.39784421,21.3561 9.42990626,21.34755 L9.52471831,21.3219 C9.58884241,21.30885 9.6529665,21.29625 9.71754863,21.2832 C9.78533696,21.27555 9.85358332,21.2679 9.92182967,21.26025 C9.98686983,21.2571 10.0477877,21.25755 10.1105377,21.25305 C10.1270268,21.25215 10.1398516,21.2508 10.1590888,21.25035 L10.2319155,21.2517 L10.3771108,21.25395 L10.5232221,21.25665 L10.5323827,21.25665 C10.4604721,21.258 10.5168097,21.25755 10.5026108,21.258 L10.5172677,21.25935 L10.5465816,21.26205 L10.6052093,21.26745 L10.7229228,21.2778 C10.7618553,21.2814 10.8021619,21.2832 10.8374302,21.29085 C10.9093407,21.30345 10.9817094,21.3156 11.054536,21.32775 C11.1209503,21.34485 11.1878225,21.3615 11.2546948,21.3786 L11.3481328,21.411 C11.3792788,21.42225 11.4113408,21.4299 11.4406547,21.4452 C11.5015726,21.47355 11.5615744,21.4929 11.6256985,21.5289 C11.6577605,21.54555 11.6879905,21.5595 11.7214266,21.57795 L11.8263153,21.63735 C11.8592934,21.65535 11.900516,21.68055 11.9408226,21.7044 L12.0644905,21.7773 C12.1574705,21.83175 12.2458701,21.88485 12.3576292,21.9447 C12.4593117,22.0032 12.5816055,22.06125 12.7011512,22.1175 C12.7588629,22.14675 12.8275673,22.17015 12.8907753,22.1958 C12.9553574,22.22055 13.0190235,22.24755 13.0854377,22.2687 L13.2855965,22.329 L13.3863629,22.35825 C13.4197991,22.3677 13.4527772,22.37355 13.4866713,22.3812 L13.6872882,22.4226 L13.7885126,22.44195 L13.8961495,22.455 L14.1118813,22.47885 L14.2199762,22.48965 C14.2401295,22.49145 14.2520382,22.4919 14.264863,22.49235 L14.3033375,22.4937 L14.6528138,22.5063 L15.0302299,22.49235 C15.0920639,22.491 15.1575621,22.4838 15.2235183,22.47615 L15.4195548,22.4532 C15.6824636,22.41945 15.954533,22.3542 16.2201899,22.2678 C16.2861461,22.24665 16.3498122,22.2192 16.4143943,22.1949 C16.4776024,22.1688 16.5463068,22.14585 16.6040184,22.1166 C16.723106,22.0599 16.8453999,22.00185 16.9470824,21.94335 C17.0588415,21.8835 17.1472411,21.8304 17.2402211,21.7755 L17.363889,21.70305 C17.4037375,21.67875 17.4454182,21.65355 17.4783963,21.63555 L17.582827,21.5757 C17.6167211,21.55725 17.6469511,21.54375 17.6790131,21.5271 C17.7431372,21.49065 17.803139,21.4713 17.8640569,21.44295 C17.8933708,21.4272 17.9258909,21.42 17.9565788,21.40875 L18.0500168,21.3759 C18.1168891,21.3588 18.1837613,21.3417 18.2506336,21.32505 C18.3138416,21.31335 18.3743015,21.30345 18.4365935,21.28995 L18.4594949,21.285 C18.4636172,21.2841 18.4668234,21.2832 18.4718617,21.28275 L18.4901829,21.28095 L18.5639256,21.2751 L18.710495,21.26385 L18.7833216,21.258 L18.819964,21.2553 L18.8382851,21.25395 C18.8245443,21.25395 18.8813399,21.2526 18.8103454,21.25395 L18.8176738,21.2535 L18.9349293,21.25035 L19.0526428,21.24675 L19.1112706,21.2445 C19.1300498,21.24495 19.1479129,21.2463 19.1662341,21.2472 C19.2395188,21.2499 19.3123454,21.25305 19.384714,21.2562 C19.4529604,21.26385 19.5212068,21.2715 19.5889951,21.2787 C19.6535772,21.29175 19.7181593,21.30435 19.7822834,21.3174 L19.8775535,21.3435 C19.9096156,21.3516 19.9416776,21.3588 19.9741977,21.37185 C20.0401539,21.39615 20.10382,21.41505 20.1757306,21.4479 L20.2819933,21.492 C20.3209258,21.51 20.3598583,21.52755 20.3983328,21.54555 C20.4821521,21.58425 20.5650554,21.62295 20.6475007,21.66165 C20.6887233,21.68145 20.7400226,21.70305 20.7858255,21.7233 C20.8334606,21.74355 20.8778894,21.76425 20.9273566,21.78405 C21.0294971,21.8223 21.1256832,21.8637 21.23103,21.89655 C21.2837033,21.9123 21.3359187,21.9285 21.388134,21.94425 L21.465999,21.9672 L21.5456961,21.9852 C21.5988274,21.99645 21.6515008,22.0077 21.7037161,22.01895 C21.7563895,22.0302 21.8081468,22.04145 21.8603621,22.0464 C21.9638768,22.05945 22.0655593,22.07205 22.1681578,22.0815 C22.2744206,22.086 22.3793093,22.0896 22.4823659,22.0923 L22.5593148,22.09365 C22.5845064,22.0941 22.6014535,22.0914 22.6229809,22.0905 C22.6632874,22.0878 22.704052,22.08465 22.7439006,22.08195 C22.8345904,22.07565 22.9248221,22.0689 23.0136798,22.0626 C23.1025375,22.0509 23.1900211,22.0392 23.2770466,22.02795 C23.3205594,22.0212 23.3626981,22.01715 23.4066689,22.00815 C23.4497237,21.99915 23.4932364,21.99015 23.5362912,21.98115 C23.6224007,21.96225 23.705762,21.94695 23.7891233,21.9231 C23.8724847,21.89745 23.9544719,21.87225 24.0355431,21.84705 C24.0758496,21.8358 24.1156982,21.82005 24.1546307,21.8034 C24.1935632,21.78765 24.2320376,21.77145 24.2705121,21.7557 C24.5755596,21.6243 24.8398424,21.46185 25.0509939,21.30255 C25.2603133,21.1419 25.4334483,21.00555 25.5969648,20.8854 C25.678494,20.8287 25.7577331,20.772 25.8374302,20.7279 C25.8772787,20.7045 25.9162112,20.68155 25.9537696,20.65905 C25.9936181,20.63925 26.0320926,20.6199 26.069651,20.601 C26.1076674,20.58255 26.1443097,20.56275 26.1814101,20.5461 C26.2194265,20.53125 26.2560689,20.51685 26.2913371,20.5029 C26.3632477,20.47545 26.430578,20.44215 26.4951602,20.42505 C26.5602003,20.40435 26.6206602,20.385 26.6756237,20.36745 C26.7040215,20.35845 26.7305872,20.349 26.7566949,20.3418 C26.7832606,20.33505 26.8084522,20.3292 26.8322697,20.32335 C26.9279978,20.3013 27.0012825,20.28105 27.0502916,20.2689 C27.0997588,20.25585 27.1254084,20.24955 27.1254084,20.24955 C27.1254084,20.24955 27.0993007,20.2446 27.0493756,20.23515 C26.9989923,20.22615 26.9247916,20.2113 26.8276894,20.19555 C26.7324193,20.17485 26.6078354,20.1708 26.4594339,20.1591 C26.383859,20.15145 26.3059941,20.1564 26.2198846,20.15685 C26.1772879,20.1582 26.132859,20.15955 26.0870561,20.16045 C26.0417112,20.1636 25.9949922,20.17035 25.9464411,20.1753 C25.89789,20.18115 25.8475068,20.187 25.7962075,20.19285 C25.7449082,20.20095 25.693609,20.2131 25.6404776,20.2239 C25.5319246,20.24415 25.4242878,20.277 25.3097805,20.3103 C25.0844301,20.3787 24.8535833,20.47635 24.6277749,20.55915 C24.1789062,20.7279 23.7465266,20.7981 23.2055941,20.75085 C23.1387218,20.74455 23.0709335,20.73825 23.0026871,20.73195 L22.9770375,20.73015 L22.9706251,20.72925 C22.9632966,20.72925 23.0141378,20.73015 22.9889462,20.72925 L22.9742893,20.727 L22.9152035,20.7189 C22.875813,20.71305 22.8359645,20.70765 22.7961159,20.7018 C22.7562674,20.6964 22.7164188,20.69055 22.6761122,20.6847 C22.656875,20.68155 22.6330575,20.67975 22.6179425,20.67615 L22.5735137,20.664 C22.514886,20.64825 22.4558002,20.6334 22.3971724,20.61945 C22.3362545,20.59965 22.2739626,20.5776 22.2121286,20.5587 C22.1805246,20.55015 22.1516688,20.53665 22.1223549,20.52405 C22.093499,20.51145 22.0641852,20.49885 22.0348713,20.4867 C22.0202144,20.4804 22.0055574,20.47455 21.9909005,20.4678 L21.9483038,20.44485 L21.8626523,20.40075 C21.8053986,20.37195 21.7467709,20.33145 21.6881431,20.2986 C21.5534825,20.20905 21.4165318,20.1186 21.2777489,20.0268 C21.2379004,20.0007 21.1975938,19.97415 21.1572872,19.9476 C21.1124004,19.92015 21.0670555,19.8927 21.0217106,19.8648 C20.933769,19.8099 20.8284222,19.75635 20.7262817,19.7028 C20.6763565,19.67535 20.620477,19.6515 20.5655135,19.62765 C20.5100919,19.60335 20.4546704,19.5795 20.3987908,19.5552 C20.2851995,19.512 20.1679441,19.47555 20.0506886,19.43685 C19.9338911,19.40535 19.8157196,19.3779 19.6961739,19.34955 C19.5784604,19.3257 19.461663,19.31085 19.3430334,19.2924 L19.2546337,19.2798 L19.1685242,19.2726 C19.1108125,19.2681 19.0531009,19.2636 18.9953892,19.2591 C18.9372195,19.2546 18.8795078,19.2501 18.8213381,19.24605 C18.7595041,19.2456 18.6976702,19.2447 18.6358362,19.24425 L18.4888088,19.2429 L18.4150661,19.242 L18.3962869,19.242 L18.3720114,19.24335 L18.3216281,19.2465 C18.1883416,19.2555 18.0518489,19.2636 17.9190204,19.2789 C17.7916883,19.2996 17.6638981,19.3185 17.5351919,19.34415 L17.3409875,19.3932 C17.2764054,19.4103 17.2104492,19.4247 17.1476992,19.4481 C17.0217411,19.4913 16.8907448,19.5345 16.7748634,19.5876 C16.7157776,19.61325 16.6534856,19.63935 16.597606,19.66545 L16.4345476,19.74555 C16.377752,19.773 16.331491,19.79775 16.283398,19.82295 L16.142783,19.8981 C16.0598797,19.9422 15.9723961,19.9899 15.9036917,20.0223 C15.7543742,20.0979 15.6362026,20.1411 15.5116187,20.1834 C15.3870347,20.2185 15.2587865,20.24595 15.1145073,20.26395 L15.0050383,20.2752 C14.968396,20.2797 14.9322117,20.28465 14.8914471,20.28375 L14.6615164,20.29095 L14.65602,20.29095 L14.6175456,20.2896 L14.5405967,20.28735 L14.3866988,20.2824 L14.3482244,20.28105 C14.3349415,20.2806 14.3212006,20.2806 14.3157043,20.2788 L14.2708174,20.2725 C14.2410455,20.26845 14.2108156,20.26485 14.1810437,20.2617 L14.1356988,20.2581 L14.0857736,20.24775 L13.9854652,20.22975 C13.9685181,20.2266 13.951113,20.22525 13.935082,20.22075 L13.888363,20.20725 L13.794467,20.1825 C13.669883,20.1402 13.5517115,20.097 13.402852,20.02095 C13.3341476,19.98855 13.246664,19.94085 13.1633027,19.89675 L13.0231457,19.8216 C12.9750527,19.7964 12.9287917,19.77165 12.8719961,19.74375 L12.7089377,19.66365 C12.6530581,19.6371 12.5907661,19.61145 12.5316804,19.5858 C12.4153409,19.53225 12.2848026,19.48905 12.1588445,19.44585 C12.0960945,19.42245 12.0301383,19.40805 11.9655562,19.3905 L11.7713518,19.34145 C11.6426456,19.3158 11.5143974,19.29645 11.3870653,19.27575 C11.2620233,19.2618 11.1388134,19.2546 11.0156035,19.24515 C10.9533116,19.2393 10.8951418,19.24065 10.8360561,19.24065 L10.6597148,19.24065 L10.5717732,19.2411 L10.5282604,19.2411 L10.506275,19.24155 L10.4581819,19.242 L10.4490213,19.2429 L10.303368,19.2555 L10.1586308,19.26765 L10.0862622,19.27395 L9.99099209,19.2861 C9.8627439,19.30455 9.73220556,19.32075 9.60899569,19.34505 C9.48945006,19.3734 9.37082048,19.4013 9.25356499,19.43235 C9.13630951,19.47105 9.01905402,19.5075 8.90546276,19.55115 C8.84958319,19.575 8.79370362,19.5993 8.73828208,19.62315 C8.68331857,19.647 8.62743901,19.67085 8.57705579,19.6983 C8.47491526,19.75185 8.36911051,19.8054 8.28162692,19.8603 C8.23582399,19.8882 8.19093713,19.91565 8.14559223,19.9431 C8.10528566,19.96965 8.06497908,19.9962 8.02513054,20.0223 C7.88634767,20.11365 7.74985496,20.2041 7.61473633,20.2932 C7.55656661,20.32605 7.49748084,20.36655 7.44068521,20.3949 L7.35503374,20.43945 L7.31243702,20.4624 C7.29823811,20.4687 7.28358118,20.47455 7.26892424,20.48085 C7.23961037,20.493 7.2102965,20.5056 7.18144065,20.51775 C7.15258481,20.5308 7.12327094,20.54385 7.09212495,20.5524 C7.02937494,20.57265 6.96799902,20.5929 6.9066231,20.61315 C6.77516871,20.6424 6.64692052,20.67795 6.50722159,20.69505 C6.4728694,20.70045 6.43897524,20.70585 6.40508107,20.71125 L6.35378179,20.71935 L6.34095698,20.7216 C6.3162234,20.7216 6.3679807,20.72295 6.35973618,20.72295 L6.35240771,20.7234 L6.32263581,20.7252 C6.24385477,20.73105 6.1659898,20.7369 6.08858286,20.74275 L6.03087117,20.74725 C6.01209197,20.7486 5.99010657,20.75085 5.97773978,20.7504 C5.94842591,20.75085 5.91911203,20.75175 5.89025619,20.7522 C5.83162845,20.7522 5.77437479,20.75895 5.71391493,20.7567 C5.65253901,20.75355 5.59207915,20.75085 5.53253534,20.7477 C5.47115942,20.7459 5.41573789,20.73375 5.35665211,20.72835 C5.12488931,20.6982 4.90686739,20.63205 4.68197502,20.5515 C4.45662463,20.4687 4.22577789,20.3706 3.99996946,20.30175 C3.88546215,20.26845 3.77736725,20.2356 3.66881431,20.2149 C3.61522489,20.20365 3.56392562,20.1915 3.51262634,20.18385 C3.46086903,20.17755 3.41094385,20.1717 3.36193472,20.16585 C2.97260985,20.12355 2.67672295,20.1564 2.47977037,20.1852 C2.38083606,20.20095 2.30617729,20.2158 2.2562521,20.2248 C2.20632691,20.2338 2.18021924,20.23875 2.18021924,20.23875 L2.18021924,20.26035 C2.18021924,20.26035 2.28144371,20.286 2.47106782,20.3337 C2.49442731,20.33955 2.51916089,20.3454 2.54526856,20.35215 L2.54526856,20.35215 Z M6.07346789,19.22535 C5.92002809,18.5904 5.8371248,17.92845 5.83434796,17.2476 C5.81605545,12.46275 14.5859416,0 14.5859416,0 C14.5859416,0 23.4524718,12.3966 23.4708578,17.18145 C23.4735412,17.89065 23.3888058,18.58005 23.2280375,19.24065 L23.0590247,19.2348 L22.7947418,19.1979 C22.7919936,19.197 22.7828331,19.1952 22.7828331,19.1952 C22.7283276,19.1808 22.6738221,19.16685 22.6193166,19.1538 L22.5817582,19.1412 C22.5409936,19.12725 22.500229,19.11375 22.4590064,19.10115 L22.3422089,19.0512 L22.2263275,18.9909 C22.2107545,18.98235 22.1956396,18.97245 22.1800666,18.963 C22.1580812,18.9495 22.1356377,18.936 22.1136523,18.92295 L21.7211213,18.6633 L21.5892088,18.57645 L21.4463037,18.4896 C21.3459953,18.4266 21.2397325,18.37125 21.1458365,18.3222 L21.1073621,18.3024 C21.0340774,18.26235 20.9644569,18.23175 20.9081193,18.20745 L20.7038383,18.1188 L20.6878073,18.11295 C20.5810864,18.072 20.479404,18.0387 20.3813857,18.00675 L20.2824514,17.97435 L20.2590919,17.96805 C20.1413784,17.93655 20.0227488,17.9082 19.9032032,17.87985 L19.8555681,17.86905 C19.7506794,17.84835 19.6544933,17.83395 19.5610553,17.82 L19.4685334,17.80605 L19.3448655,17.7885 L19.2326483,17.77905 L18.8547742,17.75025 L18.3788818,17.74575 L18.2071208,17.7561 C18.084369,17.76465 17.9574949,17.77275 17.8251244,17.7885 L17.8072613,17.7903 L17.7202357,17.80425 C17.6103087,17.8218 17.4962594,17.8398 17.3762558,17.8641 L17.3565605,17.8677 L17.1431189,17.9217 L17.0909035,17.9352 C17.0318178,17.95005 16.9594491,17.96895 16.8774619,17.9982 L16.8403615,18.01125 C16.7194418,18.05265 16.5824911,18.09945 16.4464564,18.1611 L16.4056918,18.17865 C16.3539345,18.20115 16.3017191,18.22365 16.25271,18.2466 L16.0823231,18.3303 C16.0255275,18.35775 15.9774344,18.38295 15.9297994,18.40815 L15.7181899,18.52065 C15.6613942,18.55125 15.6045986,18.58185 15.5578796,18.6039 L15.5377263,18.6138 C15.4461205,18.66015 15.3742099,18.68805 15.2720694,18.72315 C15.187334,18.74655 15.1071788,18.7623 15.0224434,18.7731 L14.8854927,18.78795 L14.6619744,18.7947 L14.3967755,18.78615 L14.3807445,18.7839 C14.3404379,18.7785 14.3001313,18.77355 14.2520382,18.76905 C14.2520382,18.76905 14.1242481,18.74565 14.1201258,18.74475 L14.028978,18.7209 C13.9300437,18.6867 13.8590491,18.65835 13.7697334,18.6129 L13.7486641,18.60255 C13.701029,18.58005 13.6424013,18.5481 13.5842316,18.51705 L13.3817826,18.40905 C13.3327735,18.38295 13.2837644,18.3573 13.2288009,18.33075 L13.0542917,18.2448 C13.0061987,18.2223 12.9544414,18.1998 12.9031421,18.17775 L12.8605454,18.1593 C12.7245107,18.09765 12.588018,18.05085 12.4670982,18.009 L12.4290818,17.99595 C12.3480106,17.9667 12.275642,17.94825 12.2170143,17.93295 L11.9499832,17.86545 L11.930746,17.8614 C11.8112003,17.83755 11.6980671,17.81955 11.5890562,17.802 L11.4979083,17.78715 L11.4786711,17.7849 C11.3696601,17.77275 11.2688937,17.76555 11.1708754,17.75835 L11.0824758,17.75205 C11.0036948,17.7453 10.9359064,17.7444 10.8781948,17.7444 L10.5667349,17.74485 L10.4174173,17.74665 L9.99969465,17.78265 L9.88701945,17.79705 L9.80182601,17.80875 C9.68915081,17.8245 9.57235335,17.8407 9.4509756,17.865 L9.43631867,17.8677 L9.40334056,17.87535 C9.2833369,17.9037 9.16424929,17.93205 9.04653577,17.96355 L9.02271825,17.96985 L8.92240984,18.0027 C8.82439158,18.03465 8.72316712,18.0675 8.61690433,18.108 L8.60087331,18.1143 L8.39750832,18.20205 C8.34071269,18.2268 8.27063422,18.2574 8.19689151,18.29745 L8.15750099,18.3177 C8.063605,18.36675 7.95734221,18.4221 7.8570338,18.48465 L7.71412868,18.5715 L7.58038413,18.6597 L7.18968518,18.91755 C7.16769978,18.9306 7.14525634,18.9441 7.12327094,18.9576 C7.10769794,18.96705 7.09258298,18.97695 7.07975816,18.9837 L6.96250267,19.0449 L6.84616324,19.0944 L6.6904333,19.14525 C6.6670738,19.15065 6.64417234,19.15605 6.62127088,19.16145 C6.53974167,19.1808 6.46920517,19.19745 6.40966136,19.20465 L6.3945464,19.2069 L6.27591682,19.22535 L6.07346789,19.22535 Z" id="Fill-3"></path>
        </g>
    </g>
</svg>