<?xml version="1.0" encoding="UTF-8"?>
<svg width="44px" height="44px" viewBox="0 0 44 44" version="1.1" xmlns="http://www.w3.org/2000/svg" xmlns:xlink="http://www.w3.org/1999/xlink">
    <title>draw_btn</title>
    <g id="draw_btn" stroke="none" stroke-width="1" fill="none" fill-rule="evenodd">
        <g transform="translate(12.000000, 13.000000)" stroke="#FFFFFF">
            <path d="M16.5,15.5 L3.1,15.5 M1.5,13.9444 L3.3,3.0556 M5.1,1.5 L13.9,1.5 M15.7,3.0556 L17.5,14.2623" id="Shape"></path>
            <path d="M17.5,17 C18.3284,17 19,16.3284 19,15.5 C19,14.6716 18.3284,14 17.5,14 C16.6716,14 16,14.6716 16,15.5 C16,16.3284 16.6716,17 17.5,17 Z" id="Path"></path>
            <path d="M15.5,3 C16.3284,3 17,2.3284 17,1.5 C17,0.6716 16.3284,0 15.5,0 C14.6716,0 14,0.6716 14,1.5 C14,2.3284 14.6716,3 15.5,3 Z" id="Path"></path>
            <path d="M3.5,3 C4.3284,3 5,2.3284 5,1.5 C5,0.6716 4.3284,0 3.5,0 C2.6716,0 2,0.6716 2,1.5 C2,2.3284 2.6716,3 3.5,3 Z" id="Path"></path>
            <path d="M1.5,17 C2.3284,17 3,16.3284 3,15.5 C3,14.6716 2.3284,14 1.5,14 C0.6716,14 0,14.6716 0,15.5 C0,16.3284 0.6716,17 1.5,17 Z" id="Path"></path>
        </g>
    </g>
</svg>