<?xml version="1.0" encoding="UTF-8"?>
<svg width="60px" height="60px" viewBox="0 0 60 60" version="1.1" xmlns="http://www.w3.org/2000/svg" xmlns:xlink="http://www.w3.org/1999/xlink">
    <title>icons/marine</title>
    <g id="icons/marine" stroke="none" stroke-width="1" fill="none" fill-rule="evenodd">
        <g id="Fill-4" transform="translate(4.000000, 7.000000)" fill="#FF8600">
            <path d="M51.8420104,41.5605333 C51.7372134,41.5393833 51.5823995,41.50335 51.3799505,41.4649667 C51.1814712,41.4156167 50.9218602,41.4062167 50.6122324,41.3780167 C50.4550368,41.3592167 50.2922837,41.37175 50.1136523,41.3725333 C50.0239397,41.3756667 49.9318452,41.3788 49.8365752,41.3819333 C49.7413051,41.3889833 49.6444472,41.40465 49.5428257,41.4171833 C49.4412043,41.4305 49.3372011,41.4446 49.2300223,41.4587 C49.1236374,41.4775 49.0164585,41.5064833 48.9053101,41.5331167 C48.6790436,41.5816833 48.454365,41.6600167 48.2153959,41.7399167 C47.7461907,41.9036333 47.2650768,42.13785 46.7942838,42.3360333 C45.8590491,42.7402333 44.9563651,42.90865 43.8297963,42.7950667 C43.6900669,42.7801833 43.5487496,42.7653 43.4066384,42.7504167 L43.3534459,42.7449333 L43.3399493,42.74415 C43.324071,42.7433667 43.4304559,42.7449333 43.3780573,42.7433667 L43.3478885,42.7378833 L43.2240374,42.7183 C43.1422639,42.7049833 43.0589026,42.6916667 42.9763352,42.6775667 C42.8929738,42.66425 42.8096125,42.6509333 42.7254573,42.6376167 C42.6857614,42.6297833 42.6365385,42.6250833 42.6047818,42.6156833 L42.5118935,42.5874833 C42.3896302,42.5491 42.266573,42.51385 42.1443097,42.4801667 C42.017283,42.4331667 41.8878744,42.3799 41.7584659,42.3344667 C41.6925708,42.3148833 41.632233,42.2827667 41.5718953,42.2514333 C41.5107637,42.2216667 41.449632,42.1919 41.3885004,42.1621333 C41.3583316,42.14725 41.3273688,42.1339333 41.2971999,42.1174833 L41.2082812,42.06265 L41.0304437,41.9561167 C40.9113561,41.8879667 40.7882989,41.7908333 40.6668295,41.7117167 C40.3849889,41.4978667 40.0999725,41.2808833 39.8109866,41.06155 C39.7276253,40.9981 39.64347,40.9354333 39.5593148,40.8719833 C39.4656325,40.8061833 39.3711564,40.7396 39.2766802,40.6738 C39.0940792,40.5414167 38.8741641,40.4137333 38.6613942,40.2852667 C38.5565971,40.2194667 38.4406852,40.1622833 38.3255672,40.1051 C38.2104492,40.0471333 38.0945372,39.98995 37.9786253,39.9319833 C37.7420379,39.8285833 37.4975114,39.74085 37.2529848,39.6476333 C37.0092522,39.5732167 36.7623439,39.5066333 36.5138478,39.4384833 C36.2685273,39.3820833 36.0255886,39.3468333 35.7778863,39.3021833 L35.5929036,39.2716333 L35.4134783,39.2551833 C35.2935968,39.2442167 35.1737152,39.23325 35.0530398,39.2222833 C34.9323643,39.2113167 34.810895,39.2011333 34.6902195,39.19095 C34.560811,39.1893833 34.4321964,39.1886 34.3035818,39.1870333 L33.9963358,39.1839 L33.8431097,39.1823333 L33.8042078,39.18155 L33.7533971,39.1846833 L33.6486,39.1917333 C33.3707289,39.2136667 33.0857125,39.2324667 32.8094293,39.2700667 C32.543467,39.3194167 32.2767107,39.36485 32.0083667,39.4267333 L31.6034688,39.54345 C31.4692968,39.5849667 31.3319491,39.6194333 31.2009527,39.67505 C30.9381661,39.7792333 30.6658524,39.88185 30.4237076,40.0095333 C30.3014443,40.0706333 30.1712419,40.1325167 30.054536,40.1959667 L29.7147394,40.3878833 C29.5964457,40.4536833 29.4995878,40.5132167 29.3995542,40.5735333 L29.1065987,40.7529167 C28.9335247,40.8586667 28.7509237,40.9730333 28.6080186,41.0505833 C28.296803,41.2315333 28.0506886,41.3349333 27.7902837,41.4367667 C27.5314666,41.5205833 27.2631225,41.5863833 26.9630218,41.6286833 L26.7343736,41.6561 C26.6581575,41.6662833 26.5827354,41.6780333 26.4977862,41.6764667 L26.019054,41.6937 L26.0071453,41.6929167 L25.9269596,41.6905667 L25.7665883,41.6843 L25.4450518,41.6733333 L25.3648661,41.6702 C25.3378729,41.6694167 25.3092919,41.6686333 25.298177,41.6647167 L25.2044948,41.64905 C25.1417753,41.63965 25.0790558,41.6310333 25.0163364,41.6239833 L24.9226541,41.6145833 L24.818651,41.5903 L24.6090568,41.5472167 C24.5741244,41.5393833 24.5376042,41.53625 24.5050536,41.5252833 L24.4074018,41.4931667 L24.2105102,41.4344167 C23.9508993,41.3325833 23.7047849,41.2291833 23.3943632,41.04745 C23.2514581,40.9691167 23.0688571,40.8555333 22.8957831,40.749 L22.6028276,40.5696167 C22.502794,40.5085167 22.40673,40.4497667 22.2876424,40.3831833 L21.9486397,40.1912667 C21.8311399,40.1278167 21.7017314,40.0659333 21.5786742,40.0048333 C21.3365294,39.87715 21.0642157,39.77375 20.8014291,39.6695667 C20.6704327,39.61395 20.533085,39.5787 20.398119,39.5371833 L19.9932212,39.4204667 C19.7248771,39.3585833 19.4581209,39.3123667 19.1921585,39.2630167 C18.9317536,39.22855 18.6753183,39.2121 18.4180891,39.1893833 C18.2878867,39.1752833 18.1664173,39.1784167 18.044154,39.1776333 L17.6765703,39.1784167 L17.4931754,39.1792 L17.4018749,39.1799833 L17.3566216,39.1799833 L17.2557941,39.1823333 L17.2367401,39.1839 L16.9334636,39.2136667 L16.631775,39.2434333 L16.4809307,39.2583167 L16.2824514,39.2873 C16.0149012,39.3311667 15.7425876,39.3703333 15.4853583,39.4290833 C15.2368622,39.49645 14.9899539,39.5630333 14.7454273,39.63745 C14.5009008,39.7306667 14.2555803,39.8176167 14.0189929,39.9218 C13.903081,39.9789833 13.7871691,40.03695 13.6712571,40.0941333 C13.5561391,40.1521 13.4394333,40.2085 13.3354301,40.2750833 C13.1218663,40.4027667 12.9019512,40.53045 12.7185563,40.6628333 C12.6240801,40.7286333 12.529604,40.7952167 12.4359217,40.8610167 C12.3517665,40.9244667 12.2676112,40.9871333 12.1842499,41.0505833 C11.895264,41.2691333 11.6102476,41.4861167 11.328407,41.6991833 C11.2069376,41.7783 11.0846743,41.8754333 10.9655867,41.9435833 L10.7877492,42.0493333 L10.6988305,42.1041667 C10.6686616,42.1198333 10.6384928,42.13315 10.6083239,42.1480333 C10.5471923,42.1778 10.4860606,42.2075667 10.4257229,42.2373333 C10.3653852,42.2678833 10.3050475,42.3 10.2391523,42.3195833 C10.1089499,42.3689333 9.98033528,42.4167167 9.85251458,42.4652833 C9.57861309,42.535 9.31185685,42.6203833 9.02048918,42.6611167 C8.94903661,42.6744333 8.87758405,42.68775 8.8069254,42.7002833 L8.70054047,42.7198667 L8.6743412,42.7245667 C8.62194265,42.7245667 8.72991542,42.7277 8.71244924,42.7277 L8.69736481,42.7292667 L8.63543925,42.7339667 C8.47109835,42.7480667 8.30834529,42.7621667 8.14718007,42.7754833 L8.02650463,42.78645 C7.98760267,42.7895833 7.94234938,42.7950667 7.91615011,42.7942833 C7.85501847,42.79585 7.79468075,42.7966333 7.73434303,42.7982 C7.61207976,42.7989833 7.49219824,42.81465 7.36675929,42.80995 C7.23893859,42.8021167 7.11270573,42.7950667 6.9880607,42.7872333 C6.86024001,42.7825333 6.74432807,42.7543333 6.6220648,42.7410167 C6.13856912,42.66895 5.68444838,42.5107167 5.21524321,42.3172333 C4.74524413,42.11905 4.2641302,41.8848333 3.79413112,41.7203333 C3.55436807,41.63965 3.32968946,41.5613167 3.10342301,41.5119667 C2.99148066,41.4853333 2.88430181,41.4555667 2.77712297,41.4367667 C2.66994412,41.4226667 2.56514703,41.4077833 2.4635256,41.3944667 C1.65214205,41.2934167 1.03526825,41.37175 0.624812971,41.4406833 C0.418394455,41.4775 0.26278665,41.5135333 0.157989557,41.5346833 C0.0539863813,41.5574 0,41.5683667 0,41.5683667 L0,41.6200667 C0,41.6200667 0.211182021,41.6811667 0.606552872,41.7963167 C0.654981832,41.8104167 0.706586461,41.8245167 0.761366759,41.8401833 C0.814559223,41.8574167 0.870927357,41.8801333 0.929677242,41.9012833 C1.04558918,41.9435833 1.17182204,41.9890167 1.30916975,42.0383667 C1.44651745,42.0806667 1.58465907,42.159 1.73391554,42.2248 C1.80774985,42.2584833 1.88396592,42.29295 1.96256374,42.3282 C2.03957373,42.3673667 2.1157898,42.41515 2.19518153,42.4598 C2.27298543,42.50445 2.35317109,42.5506667 2.4357385,42.5976667 C2.51433632,42.6509333 2.59452197,42.7057667 2.67788329,42.7621667 C2.84301811,42.86635 3.007359,43.00265 3.17805124,43.1373833 C3.51784787,43.4240833 3.87828636,43.7507333 4.31573483,44.1345667 C4.75635897,44.5168333 5.30892546,44.90615 5.9456472,45.2202667 C6.02583285,45.2578667 6.10681242,45.29625 6.18858591,45.3354167 C6.26956548,45.3745833 6.35292681,45.4121833 6.43708205,45.4396 C6.60618645,45.4991333 6.7776726,45.55945 6.95154051,45.62055 C7.12779016,45.6785167 7.31991817,45.7176833 7.5088705,45.7631167 C7.6049345,45.7842667 7.7009985,45.8062 7.79785642,45.8281333 C7.85104889,45.8406667 7.88518733,45.8445833 7.92567712,45.8524167 L8.04555864,45.8727833 C8.20513603,45.8994167 8.36709518,45.92605 8.52984824,45.9534667 L8.59097988,45.9628667 L8.60685822,45.9652167 C8.59971297,45.966 8.71800666,45.9691333 8.67592904,45.96835 L8.71165532,45.9707 L8.85217869,45.9808833 C8.94665486,45.98715 9.04192494,45.9934167 9.13719503,45.9996833 C9.51589362,46.03885 9.92396714,46.013 10.338392,45.9973333 C10.5479862,45.9754 10.7631378,45.94485 10.9790833,45.9127333 C11.0870561,45.9002 11.1958228,45.8735667 11.3053834,45.8469333 C11.414944,45.8195167 11.5245046,45.7928833 11.635653,45.7654667 C11.6904333,45.7513667 11.7460075,45.73805 11.8015817,45.7223833 L11.9643348,45.66755 C12.0731015,45.6291667 12.1826621,45.5907833 12.2922227,45.5524 C12.5121378,45.4732833 12.712205,45.3738 12.9257687,45.28215 C13.028978,45.2343667 13.1218663,45.1850167 13.221106,45.1356667 C13.3163761,45.0878833 13.4235549,45.0354 13.509298,44.9884 C13.6815781,44.8959667 13.8546521,44.80275 14.02852,44.7095333 C14.1087056,44.66645 14.1896852,44.62415 14.2706648,44.58185 L14.4921677,44.4761 C14.6422181,44.3969833 14.7748023,44.35155 14.9113561,44.2935833 C14.979633,44.2614667 15.0455281,44.2450167 15.1122172,44.22465 L15.3099026,44.1627667 C15.4440746,44.1314333 15.5774527,44.1008833 15.7124187,44.06955 C15.853736,44.0515333 15.9958472,44.0335167 16.1379584,44.0155 C16.2745122,44.0076667 16.4007451,44.00845 16.5317414,43.9982667 C16.5658799,43.9959167 16.5928731,43.9927833 16.6333629,43.9912167 L16.7842072,43.99435 L17.0874836,44.0006167 L17.3923479,44.0061 L17.4114019,44.0068833 C17.2613515,44.0100167 17.3780573,44.00845 17.3486824,44.0100167 L17.3796452,44.01315 L17.4407768,44.0202 L17.5630401,44.0327333 L17.8075666,44.0570167 C17.8893401,44.0656333 17.9734954,44.06955 18.0465358,44.0891333 C18.1973801,44.1181167 18.3482244,44.1478833 18.4998626,44.17765 C18.6380042,44.2176 18.7769398,44.25755 18.9166692,44.2982833 L19.111179,44.3766167 C19.1762802,44.40325 19.2429693,44.4212667 19.3048948,44.4580833 C19.4311277,44.52545 19.5565666,44.57245 19.6899447,44.6586167 C19.7566338,44.6985667 19.8193533,44.7314667 19.8900119,44.7753333 L20.1083392,44.9186833 C20.1766161,44.9617667 20.2631531,45.0220833 20.3465144,45.0792667 L20.6045375,45.2531667 C20.7990473,45.3839833 20.9832361,45.5108833 21.2166478,45.6550167 C21.4278299,45.79445 21.6826773,45.9338833 21.9319674,46.0686167 C22.0526428,46.1383333 22.195548,46.19395 22.3265443,46.2566167 C22.4615103,46.3145833 22.5940945,46.3803833 22.73303,46.4305167 L23.1506306,46.57465 L23.3602247,46.64515 C23.4300895,46.6678667 23.4991603,46.6811833 23.569025,46.6992 L23.9882134,46.7994667 L24.1986015,46.8449 L24.4232801,46.8762333 L24.8734312,46.9334167 L25.0981099,46.9592667 C25.1401875,46.9639667 25.1647989,46.96475 25.1909982,46.9663167 L25.2711839,46.96945 L26,47 L26.7867721,46.9655333 C26.9153867,46.9631833 27.0527344,46.9451667 27.1900821,46.92715 L27.5989496,46.8723167 C28.1467526,46.7916333 28.7136096,46.6349667 29.26697,46.4281667 C29.4059055,46.3780333 29.5376958,46.3122333 29.6726618,46.2534833 C29.804452,46.1916 29.9473572,46.1359833 30.0680326,46.0662667 C30.3165287,45.93075 30.5713762,45.7913167 30.7825582,45.6511 C31.01597,45.50775 31.2001588,45.3800667 31.3938746,45.2500333 L31.6518978,45.07535 C31.7352591,45.0173833 31.8217961,44.9570667 31.890073,44.9139833 L32.1084003,44.7714167 C32.1790589,44.7267667 32.2417784,44.6938667 32.3092614,44.6539167 C32.4418456,44.5669667 32.5680784,44.5199667 32.6943113,44.4526 C32.7562368,44.4157833 32.8229259,44.3977667 32.8880271,44.37035 L33.0825369,44.2920167 C33.2222663,44.2512833 33.3612019,44.21055 33.5001374,44.1706 C33.6327216,44.1424 33.7581606,44.1189 33.8875691,44.0867833 L33.935998,44.07425 C33.9447311,44.0726833 33.9510825,44.0703333 33.9614034,44.0687667 L33.9995114,44.06485 L34.1527375,44.0515333 L34.4583957,44.0241167 L34.6108278,44.0100167 L34.6870439,44.0029667 L34.7251519,43.9998333 C34.6973648,43.9998333 34.8148646,43.9967 34.6671959,43.9998333 L34.6822804,43.99905 L34.9268069,43.992 L35.1721274,43.9826 L35.2943907,43.9779 C35.3332926,43.9779 35.3706067,43.9818167 35.4087148,43.9833833 C35.5611469,43.9912167 35.7127851,43.9982667 35.8644233,44.0053167 C36.0065346,44.0233333 36.1486458,44.04135 36.2899631,44.0593667 C36.4257229,44.0907 36.559895,44.12125 36.6932731,44.1518 L36.8917524,44.2144667 C36.9584415,44.23405 37.0251305,44.2512833 37.0934074,44.2826167 C37.2307551,44.3405833 37.3633393,44.3860167 37.5141836,44.4651333 L37.7356866,44.5708833 C37.8166662,44.6131833 37.8968518,44.6554833 37.9778314,44.6977833 C38.1516993,44.7917833 38.3255672,44.8842167 38.4970533,44.97665 C38.5835903,45.02365 38.6899753,45.0761333 38.7852454,45.1239167 C38.884485,45.1732667 38.9773734,45.2226167 39.0797887,45.2696167 C39.2933525,45.3612667 39.4934196,45.46075 39.7133348,45.5390833 C39.8228954,45.5774667 39.931662,45.6150667 40.0404287,45.65345 L40.2031818,45.7082833 L40.3691105,45.7513667 C40.479465,45.778 40.5898195,45.8054167 40.6993801,45.83205 C40.8081468,45.8586833 40.9169135,45.8853167 41.0248863,45.89785 C41.2408318,45.9299667 41.4536016,45.9597333 41.6663715,45.98245 C41.8878744,45.9934167 42.1069956,46.00125 42.3221472,46.0075167 L42.4825186,46.0114333 C42.5349171,46.0122167 42.5706434,46.00595 42.6151028,46.0036 C42.699258,45.99655 42.7834132,45.9895 42.8675685,45.9832333 C43.0565208,45.9675667 43.2438853,45.9519 43.429662,45.9370167 C43.6146447,45.9088167 43.7972457,45.8814 43.9790528,45.8532 C44.0695594,45.8375333 44.1576842,45.8281333 44.2481908,45.8069833 C44.3386974,45.78505 44.4292039,45.7631167 44.5189166,45.7419667 C44.6983419,45.6965333 44.8722098,45.6597167 45.0460777,45.6025333 C45.2199456,45.5414333 45.3906379,45.4811167 45.5597423,45.4208 C45.6438975,45.3941667 45.7264649,45.3557833 45.8082384,45.3166167 C45.889218,45.2782333 45.9694036,45.23985 46.0495893,45.2014667 C46.6855171,44.88735 47.2364958,44.4980333 47.676326,44.1157667 C48.1129805,43.7319333 48.473419,43.4052833 48.8140096,43.1178 C48.9847018,42.9815 49.1498366,42.8452 49.3157654,42.7410167 C49.3991267,42.6846167 49.4801063,42.629 49.5587041,42.5757333 C49.6412715,42.52795 49.7214571,42.4817333 49.800055,42.4370833 C49.8794467,42.3924333 49.9556628,42.34465 50.0326728,42.3047 C50.1112706,42.26945 50.1882806,42.2349833 50.2621149,42.2013 C50.4113713,42.1355 50.5526886,42.0563833 50.6868607,42.0148667 C50.8226205,41.9655167 50.9480595,41.9193 51.0639714,41.877 C51.1219274,41.85585 51.1775016,41.8331333 51.2322819,41.8151167 C51.2878561,41.8002333 51.3402547,41.78535 51.3902715,41.77125 C51.5895447,41.7179833 51.7419769,41.6702 51.8443922,41.6404333 C51.9476015,41.6098833 52,41.5942167 52,41.5942167 C52,41.5942167 51.9468075,41.5824667 51.8420104,41.5605333 L51.8420104,41.5605333 Z M4.41179883,35.4278167 C4.45625821,35.44035 4.50309933,35.4568 4.55152829,35.4724667 C4.64838621,35.5030167 4.75397722,35.5359167 4.8675074,35.57195 C4.98183151,35.6025 5.09694953,35.6596833 5.22080064,35.7074667 C5.28272619,35.73175 5.34544566,35.7568167 5.4113408,35.7826667 C5.47485419,35.8108667 5.53836758,35.8453333 5.60426273,35.87745 C5.66936395,35.91035 5.73605301,35.9440333 5.8043299,35.9785 C5.86943113,36.0168833 5.9369141,36.0568333 6.005191,36.0975667 C6.1425387,36.17355 6.27988641,36.27225 6.4212037,36.37095 C6.70383829,36.5793167 7.00393905,36.8158833 7.36755321,37.0955333 C7.73354912,37.3728333 8.19322727,37.6564 8.72277016,37.88435 C8.78945922,37.9117667 8.8569422,37.9399667 8.92442517,37.9681667 C8.99270207,37.9963667 9.06097896,38.0237833 9.13163761,38.04415 C9.27216098,38.0872333 9.41506611,38.1311 9.55955907,38.17575 C9.70563987,38.2172667 9.86521726,38.2454667 10.0232068,38.27915 C10.1025986,38.2948167 10.1827842,38.3104833 10.2629699,38.32615 C10.3066353,38.33555 10.3352163,38.3386833 10.3693548,38.3433833 L10.4685945,38.3582667 C10.6019726,38.37785 10.7361446,38.3974333 10.8719045,38.4170167 L10.9227152,38.4240667 L10.9354179,38.4264167 C10.9298605,38.4264167 11.0275123,38.4287667 10.9933738,38.4279833 L11.0227488,38.4303333 L11.1394546,38.4373833 C11.2180525,38.4420833 11.2974442,38.4467833 11.3768359,38.4507 C11.6912272,38.4796833 12.0302299,38.4608833 12.3747901,38.4491333 C12.5494519,38.4334667 12.7280833,38.41075 12.9083025,38.3880333 C12.9980152,38.3786333 13.0885218,38.35905 13.1790284,38.3394667 C13.2703289,38.3198833 13.3616294,38.3003 13.4537238,38.2807167 C13.499771,38.2705333 13.5458182,38.2611333 13.5918654,38.2493833 L13.7276253,38.2094333 C13.8181319,38.1812333 13.9086384,38.1538167 13.9999389,38.1256167 C14.1825399,38.0684333 14.3492626,37.9963667 14.5271001,37.9297833 C14.6120492,37.8945333 14.6898531,37.8592833 14.7724205,37.82325 C14.8510184,37.788 14.940731,37.7504 15.0121836,37.7159333 C15.1550887,37.6485667 15.2987877,37.5812 15.4432807,37.51305 C15.5107637,37.4825 15.5774527,37.4511667 15.6449357,37.4206167 L15.8291246,37.3430667 C15.9537696,37.2858833 16.0641241,37.2529833 16.1776543,37.2106833 C16.2340224,37.1879667 16.2895966,37.1754333 16.3451708,37.16055 L16.5095117,37.1159 C16.6206602,37.0931833 16.7318086,37.07125 16.843751,37.0485333 C16.9612507,37.0352167 17.0795444,37.0219 17.1978381,37.0085833 C17.3105744,37.0031 17.4161654,37.0038833 17.5249321,36.99605 C17.5535131,36.9944833 17.5757428,36.9921333 17.6090873,36.99135 L17.7353202,36.9937 L17.986992,36.9976167 L18.2402516,37.0023167 L18.25613,37.0023167 C18.1314849,37.0046667 18.2291368,37.0038833 18.2045253,37.0046667 L18.2299307,37.0070167 L18.2807414,37.0117167 L18.3823628,37.0211167 L18.5863996,37.0391333 C18.6538826,37.0454 18.7237473,37.0485333 18.7848789,37.06185 C18.909524,37.0837833 19.0349629,37.1049333 19.1611958,37.1260833 C19.2763138,37.15585 19.3922257,37.1848333 19.5081377,37.2146 L19.6700968,37.271 C19.7240832,37.2905833 19.7796574,37.3039 19.8304681,37.3305333 C19.9360591,37.3798833 20.0400623,37.4135667 20.1512107,37.4762333 C20.2067849,37.5052167 20.2591835,37.5295 20.3171395,37.5616167 L20.4989465,37.6650167 C20.5561086,37.69635 20.6275611,37.7402167 20.6974259,37.7817333 L20.9117836,37.9086333 C21.0729488,38.0034167 21.2261748,38.09585 21.4198907,38.2000333 C21.5961403,38.3018667 21.8081163,38.4029167 22.0153287,38.5008333 C22.1153623,38.55175 22.2344499,38.5924833 22.3440105,38.6371333 C22.4559529,38.6802167 22.5663074,38.7272167 22.6814254,38.7640333 L23.0283673,38.869 L23.2030291,38.9199167 C23.2609851,38.9363667 23.3181471,38.94655 23.376897,38.9598667 L23.7246328,39.0319333 L23.9000886,39.0656167 L24.0866591,39.0883333 L24.4605942,39.12985 L24.6479587,39.14865 C24.6828911,39.1517833 24.7035329,39.1525667 24.7257626,39.15335 L24.7924517,39.1557 L25.3982106,39.1776333 L26.0523985,39.15335 C26.1595774,39.151 26.2731076,39.1384667 26.3874317,39.12515 L26.7272283,39.0852 C27.1829369,39.02645 27.6545238,38.9128667 28.1149959,38.7624667 C28.22932,38.72565 28.3396745,38.6778667 28.4516168,38.6355667 C28.5611774,38.5901333 28.680265,38.5501833 28.7802986,38.4992667 C28.9867172,38.4005667 29.1986931,38.2995167 29.3749427,38.1976833 C29.5686586,38.0935 29.7218846,38.0010667 29.8830499,37.9055 L30.0974076,37.7793833 C30.1664784,37.7370833 30.2387248,37.6932167 30.2958869,37.6618833 L30.4769001,37.5577 C30.5356499,37.5255833 30.5880485,37.5020833 30.6436227,37.4731 C30.7547711,37.40965 30.8587743,37.3759667 30.9643653,37.3266167 C31.015176,37.2992 31.0715442,37.2866667 31.1247366,37.2670833 L31.2866958,37.2099 C31.4026077,37.1801333 31.5185196,37.1503667 31.6344316,37.1213833 C31.7439922,37.1010167 31.8487893,37.0837833 31.956762,37.0602833 L31.9964579,37.0516667 C32.0036032,37.0501 32.0091606,37.0485333 32.0178937,37.04775 L32.0496504,37.0446167 L32.1774711,37.0344333 L32.4315246,37.01485 L32.5577575,37.0046667 L32.6212709,36.9999667 L32.6530276,36.9976167 C32.6292101,36.9976167 32.7276558,36.9952667 32.6045986,36.9976167 L32.6173013,36.9968333 L32.8205441,36.99135 L33.0245809,36.9850833 L33.1262023,36.9811667 C33.1587529,36.98195 33.1897157,36.9843 33.2214724,36.9858667 C33.3484992,36.9905667 33.4747321,36.99605 33.600171,37.0015333 C33.7184647,37.01485 33.8367584,37.0281667 33.9542581,37.0407 C34.0662005,37.0634167 34.1781428,37.08535 34.2892913,37.1080667 L34.4544261,37.1535 C34.5100003,37.1676 34.5655745,37.1801333 34.6219427,37.20285 C34.7362668,37.24515 34.8466213,37.27805 34.9712663,37.3352333 L35.1554551,37.412 C35.2229381,37.4433333 35.2904211,37.4738833 35.3571101,37.5052167 C35.502397,37.5725833 35.6460961,37.63995 35.7890012,37.7073167 C35.8604538,37.7417833 35.9493725,37.7793833 36.0287642,37.8146333 C36.1113316,37.8498833 36.1883416,37.8859167 36.2740847,37.9203833 C36.4511283,37.9869667 36.6178509,38.0590333 36.8004519,38.1162167 C36.8917524,38.1436333 36.982259,38.1718333 37.0727656,38.19925 L37.2077315,38.2392 L37.3458732,38.2705333 C37.4379676,38.2901167 37.5292681,38.3097 37.6197746,38.3292833 C37.7110751,38.3488667 37.8007878,38.36845 37.8912944,38.3770667 C38.0707197,38.3997833 38.2469694,38.4217167 38.4248069,38.4381667 C38.6089957,38.446 38.7908028,38.4522667 38.9694342,38.4569667 L39.1028123,38.4593167 C39.1464778,38.4601 39.1758527,38.4554 39.2131668,38.4538333 C39.2830315,38.4491333 39.3536902,38.44365 39.422761,38.43895 C39.5799566,38.4279833 39.7363584,38.4162333 39.8903783,38.4052667 C40.0443983,38.3849 40.1960365,38.3645333 40.3468808,38.34495 C40.422303,38.3332 40.4953434,38.32615 40.5715594,38.3104833 C40.6461877,38.2948167 40.7216098,38.27915 40.7962381,38.2634833 C40.9454945,38.2305833 41.0899875,38.20395 41.2344804,38.1624333 C41.3789734,38.1177833 41.5210846,38.0739167 41.661608,38.03005 C41.7314727,38.0104667 41.8005435,37.98305 41.8680265,37.9540667 C41.9355095,37.92665 42.0021985,37.89845 42.0688876,37.8710333 C42.5976366,37.6423 43.0557269,37.3595167 43.4217228,37.0822167 C43.784543,36.8025667 44.0846438,36.5652167 44.3680723,36.3560667 C44.5093896,36.2573667 44.6467373,36.1586667 44.7848789,36.0819 C44.8539497,36.0411667 44.9214327,36.0012167 44.9865339,35.96205 C45.0556048,35.9275833 45.1222938,35.8939 45.187395,35.861 C45.2532902,35.8288833 45.3168036,35.7944167 45.3811109,35.7654333 C45.447006,35.7395833 45.5105194,35.7145167 45.571651,35.6902333 C45.6962961,35.64245 45.8130019,35.5844833 45.9249443,35.5547167 C46.0376805,35.5186833 46.1424776,35.485 46.2377477,35.45445 C46.2869706,35.4387833 46.3330178,35.4223333 46.3782711,35.4098 C46.4243183,35.39805 46.4679838,35.3878667 46.5092675,35.3776833 C46.6751962,35.3393 46.802223,35.30405 46.8871721,35.2829 C46.9729152,35.2601833 47.0173746,35.2492167 47.0173746,35.2492167 C47.0173746,35.2492167 46.9721213,35.2406 46.8855843,35.22415 C46.7982534,35.2084833 46.6696388,35.1826333 46.5013283,35.1552167 C46.3361935,35.1191833 46.1202479,35.1121333 45.8630187,35.0917667 C45.7320224,35.07845 45.5970564,35.0870667 45.4477999,35.08785 C45.3739656,35.0902 45.2969556,35.09255 45.2175639,35.0941167 C45.1389661,35.0996 45.0579865,35.11135 44.9738313,35.1199667 C44.889676,35.13015 44.8023451,35.1403333 44.7134264,35.1505167 C44.6245076,35.1646167 44.5355889,35.1857667 44.4434945,35.2045667 C44.255336,35.2398167 44.0687655,35.297 43.8702861,35.3549667 C43.4796788,35.4740333 43.0795444,35.6440167 42.6881431,35.78815 C41.9101041,36.0819 41.1606461,36.2041 40.2230297,36.12185 C40.1071178,36.1108833 39.989618,36.0999167 39.8713243,36.08895 L39.8268649,36.0858167 L39.8157501,36.08425 C39.8030474,36.08425 39.8911722,36.0858167 39.8475068,36.08425 L39.8221014,36.0803333 L39.7196861,36.0662333 C39.6514092,36.05605 39.5823384,36.04665 39.5132676,36.0364667 C39.4441968,36.0270667 39.375126,36.0168833 39.3052612,36.0067 C39.2719167,36.0012167 39.230633,35.9980833 39.2044337,35.9918167 L39.1274237,35.9706667 C39.0258023,35.94325 38.923387,35.9174 38.8217656,35.8931167 C38.7161745,35.85865 38.6082018,35.8202667 38.5010229,35.7873667 C38.4462426,35.7724833 38.3962258,35.7489833 38.3454151,35.72705 C38.2953983,35.7051167 38.2445876,35.6831833 38.1937769,35.6620333 C38.1683716,35.6510667 38.1429662,35.6408833 38.1175608,35.6291333 L38.0437265,35.5891833 L37.895264,35.5124167 C37.7960243,35.4622833 37.6944029,35.3917833 37.5927815,35.3346 C37.3593698,35.1787167 37.1219885,35.0212667 36.8814315,34.8614667 C36.8123607,34.8160333 36.742496,34.7698167 36.6726312,34.7236 C36.5948273,34.6758167 36.5162295,34.6280333 36.4376317,34.5794667 C36.2851995,34.4839 36.1025986,34.3906833 35.925555,34.2974667 C35.839018,34.2496833 35.7421601,34.2081667 35.64689,34.16665 C35.550826,34.12435 35.454762,34.0828333 35.3579041,34.0405333 C35.1610126,33.9653333 34.9577697,33.9018833 34.7545269,33.8345167 C34.5520779,33.7796833 34.3472472,33.7319 34.1400348,33.68255 C33.935998,33.6410333 33.7335491,33.6151833 33.5279245,33.5830667 L33.3746985,33.5611333 L33.225442,33.5486 C33.1254084,33.5407667 33.0253748,33.5329333 32.9253412,33.5251 C32.8245137,33.5172667 32.7244801,33.5094333 32.6236526,33.5023833 C32.5164738,33.5016 32.4092949,33.5000333 32.3021161,33.49925 L32.0472686,33.4969 L31.9194479,33.4953333 L31.8868973,33.4953333 L31.8448197,33.4976833 L31.7574888,33.5031667 C31.5264588,33.5188333 31.2898714,33.5329333 31.0596354,33.5595667 C30.8389264,33.5956 30.6174234,33.6285 30.3943327,33.67315 L30.0577117,33.7585333 C29.9457693,33.7883 29.8314452,33.8133667 29.7226786,33.8541 C29.5043513,33.9293 29.2772909,34.0045 29.0764298,34.0969333 C28.9740145,34.1415833 28.8660417,34.1870167 28.7691838,34.23245 L28.4865492,34.3718833 C28.3881035,34.4196667 28.3079178,34.46275 28.2245565,34.5066167 L27.9808238,34.6374333 C27.8371248,34.7142 27.6854866,34.7972333 27.566399,34.8536333 C27.3075819,34.9852333 27.1027512,35.0604333 26.8868057,35.1340667 C26.6708602,35.1951667 26.4485633,35.24295 26.1984793,35.2742833 L26.0087331,35.2938667 C25.9452197,35.3017 25.8825002,35.3103167 25.8118416,35.30875 L25.4132951,35.3212833 L25.4037681,35.3212833 L25.337079,35.3189333 L25.2037009,35.3150167 L24.9369446,35.3064 L24.8702556,35.30405 C24.847232,35.3032667 24.8234145,35.3032667 24.8138874,35.3001333 L24.7360835,35.2891667 C24.6844789,35.2821167 24.6320804,35.27585 24.5804757,35.2703667 L24.5018779,35.2641 L24.4153409,35.2460833 L24.241473,35.21475 C24.2120981,35.2092667 24.1819292,35.2069167 24.1541421,35.1990833 L24.0731625,35.1755833 L23.9104095,35.1325 C23.694464,35.0588667 23.4896333,34.9836667 23.2316101,34.8512833 C23.1125225,34.7948833 22.9608843,34.71185 22.8163913,34.6350833 L22.5734526,34.5042667 C22.4900913,34.4604 22.4099056,34.4173167 22.3114599,34.36875 L22.0288253,34.2293167 C21.9319674,34.1831 21.8239946,34.13845 21.7215793,34.0938 C21.5199243,34.0005833 21.2936578,33.9253833 21.0753305,33.8501833 C20.9665639,33.80945 20.8522398,33.7843833 20.7402974,33.7538333 L20.4036764,33.66845 C20.1805857,33.6238 19.9582888,33.5901167 19.7375798,33.5540833 C19.5208403,33.5298 19.3072766,33.5172667 19.0937128,33.5008167 C18.98574,33.4906333 18.8849125,33.4929833 18.7824972,33.4929833 L18.476839,33.4929833 L18.3244069,33.4937667 L18.2489847,33.4937667 L18.2108767,33.49455 L18.1275153,33.4953333 L18.111637,33.4969 L17.8591713,33.5188333 L17.6082934,33.5399833 L17.4828544,33.55095 L17.3177196,33.5721 C17.0954228,33.6042167 16.8691563,33.6324167 16.6555925,33.6747167 C16.4483801,33.7240667 16.2427555,33.7726333 16.0395127,33.8266833 C15.8362698,33.89405 15.633027,33.9575 15.4361355,34.0334833 C15.3392775,34.075 15.2424196,34.1173 15.1463556,34.1588167 C15.0510855,34.2003333 14.9542276,34.24185 14.8668967,34.2896333 C14.6898531,34.38285 14.5064582,34.4760667 14.35482,34.5716333 C14.2754283,34.6202 14.1976244,34.6679833 14.1190265,34.7157667 C14.0491618,34.7619833 13.9792971,34.8082 13.9102263,34.8536333 C13.6696693,35.01265 13.4330819,35.1701 13.1988763,35.3252 C13.0980488,35.3823833 12.9956335,35.4528833 12.8971877,35.5022333 L12.7487252,35.5797833 L12.6748908,35.6197333 C12.6502794,35.6307 12.624874,35.6408833 12.5994687,35.65185 C12.548658,35.673 12.4978473,35.6949333 12.4478305,35.7160833 C12.3978137,35.7388 12.347003,35.7615167 12.2930166,35.7764 C12.1842499,35.81165 12.077865,35.8469 11.97148,35.88215 C11.7436258,35.9330667 11.5213289,35.99495 11.2791841,36.0247167 C11.2196403,36.0341167 11.1608904,36.0435167 11.1021405,36.0529167 L11.0132218,36.0670167 L10.9909921,36.0709333 C10.9481206,36.0709333 11.0378332,36.0732833 11.0235427,36.0732833 L11.01084,36.0740667 L10.9592354,36.0772 C10.8226816,36.0873833 10.6877157,36.0975667 10.5535436,36.10775 L10.45351,36.1155833 C10.4209594,36.1179333 10.3828514,36.12185 10.3614156,36.1210667 C10.3106049,36.12185 10.2597942,36.1234167 10.2097774,36.1242 C10.108156,36.1242 10.0089163,36.13595 9.90411921,36.1320333 C9.79773428,36.12655 9.69293719,36.12185 9.58972793,36.1163667 C9.483343,36.1132333 9.387279,36.0920833 9.28486366,36.0826833 C8.88314147,36.0302 8.5052368,35.91505 8.11542337,35.7748333 C7.72481602,35.6307 7.32468167,35.4599333 6.93328041,35.3400833 C6.73480106,35.2821167 6.54743656,35.2249333 6.35927815,35.1889 C6.26638981,35.1693167 6.17747107,35.1481667 6.08855232,35.13485 C5.99883966,35.1238833 5.91230267,35.1137 5.82735351,35.1035167 C5.15252374,35.0298833 4.63965312,35.0870667 4.29826865,35.1372 C4.1267825,35.1646167 3.99737397,35.1904667 3.91083697,35.2061333 C3.82429998,35.2218 3.77904669,35.2304167 3.77904669,35.2304167 L3.77904669,35.2680167 C3.77904669,35.2680167 3.95450243,35.3126667 4.28318422,35.3957 C4.32367401,35.4058833 4.36654554,35.4160667 4.41179883,35.4278167 L4.41179883,35.4278167 Z M10.5273443,33.46635 C10.261382,32.3610667 10.117683,31.2087833 10.1128698,30.0236 C10.0811628,21.6944167 25.2822987,0 25.2822987,0 C25.2822987,0 40.6509512,21.5792667 40.6828202,29.90845 C40.6874714,31.1429833 40.5405967,32.34305 40.2619317,33.4929833 L39.9689762,33.4828 L39.5108858,33.4185667 C39.5061223,33.417 39.490244,33.4138667 39.490244,33.4138667 C39.3957678,33.3888 39.3012916,33.3645167 39.2068155,33.3418 L39.1417143,33.3198667 C39.0710556,33.2955833 39.000397,33.2720833 38.9289444,33.25015 L38.7264955,33.1632 L38.5256344,33.0582333 C38.4986412,33.04335 38.4724419,33.0261167 38.4454487,33.0096667 C38.4073407,32.9861667 38.3684387,32.9626667 38.3303307,32.93995 L37.6499435,32.4879667 L37.4212953,32.3367833 L37.1735931,32.1856 C36.9997252,32.0759333 36.8155364,31.9795833 36.6527833,31.8942 L36.5860942,31.8597333 C36.4590675,31.7900167 36.338392,31.73675 36.2407402,31.69445 L35.886653,31.5401333 L35.8588659,31.52995 C35.6738832,31.4586667 35.4976335,31.4007 35.3277352,31.3450833 L35.156249,31.2886833 L35.1157593,31.2777167 C34.9117225,31.2228833 34.7060979,31.1735333 34.4988855,31.1241833 L34.4163181,31.1053833 C34.234511,31.06935 34.0677883,31.0442833 33.9058292,31.02 L33.7454579,30.9957167 L33.5311002,30.9651667 L33.3365904,30.9487167 L32.6816086,30.8985833 L31.8567284,30.89075 L31.5590094,30.9087667 C31.3462396,30.92365 31.1263245,30.93775 30.8968823,30.9651667 L30.8659196,30.9683 L30.7150753,30.9925833 C30.5245351,31.0231333 30.3268497,31.0544667 30.1188433,31.0967667 L30.0847049,31.1030333 L29.7147394,31.1970333 L29.6242328,31.2205333 C29.5218175,31.2463833 29.3963785,31.2792833 29.2542673,31.3302 L29.18996,31.3529167 C28.9803658,31.4249833 28.7429845,31.50645 28.5071911,31.6137667 L28.4365324,31.6443167 C28.3468198,31.6834833 28.2563132,31.72265 28.171364,31.7626 L27.8760267,31.9083 C27.777581,31.9560833 27.6942197,31.99995 27.6116523,32.0438167 L27.2448624,32.23965 C27.1464167,32.2929167 27.0479709,32.3461833 26.9669914,32.3845667 L26.932059,32.4018 C26.7732755,32.4824833 26.6486305,32.53105 26.4715869,32.59215 C26.3247122,32.6328833 26.1857767,32.6603 26.038902,32.6791 L25.8015207,32.70495 L25.414089,32.7167 L24.9544108,32.7018167 L24.9266237,32.6979 C24.856759,32.6885 24.7868943,32.6798833 24.7035329,32.67205 C24.7035329,32.67205 24.48203,32.6313167 24.4748847,32.62975 L24.3168952,32.5882333 C24.145409,32.5287 24.0223518,32.47935 23.8675379,32.4002333 L23.8310177,32.3822167 C23.7484503,32.34305 23.6468289,32.2874333 23.5460014,32.2333833 L23.1950899,32.0453833 C23.1101408,31.99995 23.0251916,31.9553 22.9299215,31.9090833 L22.627439,31.7594667 C22.5440777,31.7203 22.454365,31.6811333 22.3654463,31.64275 L22.291612,31.6106333 C22.0558185,31.5033167 21.8192311,31.42185 21.6096369,31.349 L21.5437418,31.3262833 C21.4032184,31.2753667 21.2777795,31.24325 21.1761581,31.2166167 L20.7133042,31.0991167 L20.6799597,31.0920667 C20.4727473,31.05055 20.2766497,31.0192167 20.0876973,30.9886667 L19.9297078,30.9628167 L19.8963632,30.9589 C19.7074109,30.93775 19.5327491,30.9252167 19.3628508,30.9126833 L19.2096247,30.9017167 C19.0730709,30.8899667 18.9555712,30.8884 18.8555376,30.8884 L18.3156738,30.8891833 L18.0568567,30.8923167 L17.3328041,30.9549833 L17.1375004,30.98005 L16.9898318,31.0004167 C16.7945281,31.0278333 16.5920791,31.0560333 16.381691,31.0983333 L16.3562857,31.1030333 L16.2991236,31.11635 C16.0911173,31.1657 15.8846988,31.21505 15.680662,31.2698833 L15.6393783,31.28085 L15.4655104,31.3380333 C15.2956121,31.39365 15.1201563,31.4508333 14.9359675,31.5213333 L14.9081804,31.5323 L14.5556811,31.68505 C14.4572353,31.7281333 14.335766,31.7814 14.2079453,31.8511167 L14.1396684,31.8863667 C13.9769153,31.97175 13.7927265,32.0681 13.6188586,32.1769833 L13.3711564,32.3281667 L13.1393325,32.4817 L12.462121,32.93055 C12.4240129,32.9532667 12.385111,32.9767667 12.347003,33.0002667 C12.3200098,33.0167167 12.2938105,33.03395 12.2715808,33.0457 L12.068338,33.1522333 L11.866683,33.2384 L11.596751,33.3269167 C11.5562613,33.3363167 11.5165654,33.3457167 11.4768695,33.3551167 C11.3355522,33.3888 11.213289,33.4177833 11.1100797,33.4303167 L11.0838804,33.4342333 L10.8782558,33.46635 L10.5273443,33.46635 Z" id="Fill-3"></path>
        </g>
    </g>
</svg>